<svg xmlns="http://www.w3.org/2000/svg" width="3081" height="1123" version="1.2"><style>svg{background-color:#fff}.c,.d{fill:#fff}.d{stroke:#8c4fff;stroke-width:3}.e{fill:#8c4fff}.g{fill:#ed7100}.h{fill:#fff;stroke:#dd344c;stroke-width:3}.i{fill:#dd344c}.k{fill:#7aa116}.l,.m,.n{stroke:#000}.l{fill:none;stroke-width:6}.m{stroke-width:.4}.n{stroke-width:6}</style><path d="M451 57.5q0-1.2.5-2.3.4-1.1 1.3-1.9.8-.9 1.9-1.3 1.1-.5 2.3-.5h2566.3q1.1 0 2.2.5 1.1.4 2 1.3.8.8 1.3 1.9.4 1.1.4 2.3v1008q0 1.2-.4 2.3-.5 1.1-1.3 1.9-.9.9-2 1.3-1.1.5-2.3.5H457q-1.2 0-2.3-.5-1.1-.4-1.9-1.3-.9-.8-1.3-1.9-.5-1.1-.5-2.3z" style="fill:#f7f4e4;stroke:#242f3e;stroke-width:3"/><path d="M451 51.5h56v56h-56z" style="fill:#242f3e"/><path d="M469.2 77.4c0 .5.1.8.2 1.3.1.4.3.7.5 1.1q0 .1.1.3 0 .3-.3.5l-1 .6q-.1.1-.3.1c-.2 0-.3 0-.5-.2s-.3-.4-.5-.7c-.2-.2-.3-.5-.5-.8-1.1 1.3-2.6 2.1-4.4 2q-1.7.1-2.9-1.1-1.2-1.2-1.1-2.8c0-1.2.4-2.3 1.3-3.1 1.1-.8 2.3-1.2 3.7-1.1.6 0 1 0 1.6.1.6.1 1.1.2 1.7.3v-1.1q.1-1.3-.7-2.4-1.1-.8-2.4-.7c-.6 0-1.1.1-1.6.2-.6.1-1.1.3-1.6.5l-.5.2h-.3c-.2 0-.3-.1-.3-.4v-.8q0-.2.1-.5.2-.2.4-.3c.7-.3 1.2-.5 1.9-.7.8-.2 1.5-.3 2.3-.3 1.5-.1 2.8.3 3.9 1.2q1.4 1.6 1.2 3.7zm-6.1 2.3c.6 0 1.1-.1 1.7-.3.5-.2 1-.5 1.4-1q.3-.3.5-.9c.1-.4.1-.8.1-1.3v-.7c-.5-.1-.9-.1-1.4-.2H464q-1.2-.1-2.2.6-.8.7-.8 1.7c0 .7.2 1.2.6 1.7q.7.5 1.5.4zm12 1.6q-.3 0-.6-.1l-.3-.6-3.5-11.5-.1-.7q0-.3.4-.3h1.5c.2 0 .3 0 .5.1q.3.3.3.6l2.5 10 2.4-10q0-.3.3-.6.2-.1.6-.1h1.2c.2 0 .4 0 .6.1l.3.6 2.3 10 2.5-10q.1-.3.4-.6c.1-.1.4-.2.6-.1h1.4c.1 0 .3.1.3.3v.3s0 .2-.1.3L485 80.6q-.1.3-.3.6-.3.1-.6.1h-1.6q-.1 0-.1-.1-.1 0-.2-.1-.2-.2-.3-.6l-2.3-9.6-2.3 9.6q0 .4-.2.6-.3.2-.7.2zm19.2.4c-.8 0-1.5-.1-2.3-.3q-.2 0-.4-.1-.2 0-.4-.1-.3-.1-.5-.2l-.4-.2q-.3-.1-.4-.4-.1 0-.1-.1v-1.1c0-.3.1-.4.3-.4h.3l.3.1c.6.3 1.1.4 1.6.5.6.2 1.2.2 1.8.2.8.1 1.5-.1 2.2-.5.5-.3.8-.8.8-1.4 0-.4-.2-.7-.4-1q-.7-.6-1.5-.8l-2.2-.7c-.9-.3-1.7-.7-2.4-1.5q-.2-.2-.3-.5-.2-.3-.2-.5l-.2-.6v-.6c0-.6.1-1.1.4-1.6.3-.5.6-.9 1.1-1.2.5-.4 1-.6 1.6-.8.6-.2 1.2-.3 1.9-.2.3-.1.6-.1.9 0l1 .1.8.2.7.3c.2.1.3.2.5.4v.2q.1.1.1.2v.8q0 .4-.4.5c-.2-.1-.4-.1-.6-.2-.9-.4-1.8-.6-2.8-.6-.7 0-1.3.1-2 .4-.5.3-.8.8-.7 1.4 0 .4.1.7.4 1 .5.4 1 .7 1.6.8l2.1.7c1 .2 1.7.7 2.3 1.4.5.7.7 1.3.7 2.1 0 .7-.1 1.2-.3 1.8-.3.5-.6.9-1.1 1.3-.5.4-1 .6-1.6.8-.8.3-1.4.4-2.2.4zm2.8 7.3c-5.6 3.8-11.4 5.6-18.2 5.6-8.5 0-15.8-2.8-22.1-8.5-.5-.4 0-1 .5-.7 7 4.1 14 5.9 22.2 5.9 6 0 11.2-1.1 16.9-3.4.8-.4 1.5.5.7 1.1z" class="c"/><path d="M499.1 86.7c-.6-.8-4.1-.4-5.7-.2-.5 0-.5-.4-.1-.7 2.8-1.9 7.4-1.4 8-.7.6.7-.1 5.3-2.8 7.5-.4.3-.8.1-.6-.3.6-1.5 1.9-4.8 1.2-5.6z" class="c"/><path d="M1011 397.5q0-1.2.5-2.3.4-1.1 1.3-1.9.8-.9 1.9-1.3 1.1-.5 2.3-.5h388q1.2 0 2.3.5 1.1.4 1.9 1.3.9.8 1.3 1.9.5 1.1.5 2.3v494.7q0 1.2-.5 2.3-.4 1.1-1.3 1.9-.8.9-1.9 1.3-1.1.5-2.3.5h-388q-1.2 0-2.3-.5-1.1-.4-1.9-1.3-.9-.8-1.3-1.9-.5-1.1-.5-2.3z" class="d"/><path d="M1097 437.6c-5.2 0-9-3.7-9-10s3.9-9.9 9-9.9c4.4 0 7.8 2.5 8.4 6.9h-4.1c-.3-2.1-2-3.4-4.2-3.4-3 0-5.1 2.3-5.1 6.4 0 4.3 2.1 6.5 5.1 6.5 2.2 0 3.9-1.3 4.3-3.4h4c-.5 3.6-3.5 6.9-8.4 6.9zm15.1-19.7v19.4h-3.9v-19.4zm9.8 19.7c-4.4 0-7.1-3-7.1-7.5s2.7-7.5 7.1-7.5c4.4 0 7.1 3 7.1 7.5s-2.7 7.5-7.1 7.5zm0-3.1c2.1 0 3.2-1.9 3.2-4.4 0-2.6-1.1-4.4-3.2-4.4s-3.1 1.8-3.1 4.4c0 2.5 1 4.4 3.1 4.4zm14.9 3c-3.1 0-5-2.1-5-5.5v-9.2h3.9v8.6c0 1.8 1 2.8 2.6 2.8s2.8-1.1 2.8-3v-8.4h3.9v14.5h-3.7v-3c-.8 2.1-2.3 3.2-4.5 3.2zm16.9.1c-3.4 0-6-2.7-6-7.5 0-5 2.7-7.5 6-7.5 2.4 0 3.6 1.5 4.1 2.6h.1v-7.3h3.9v19.4h-3.8V435h-.2c-.5 1.2-1.7 2.6-4.1 2.6zm1.2-3.2c2 0 3.1-1.7 3.1-4.3 0-2.7-1.1-4.4-3.1-4.4-2.1 0-3.1 1.8-3.1 4.4 0 2.5 1 4.3 3.1 4.3zm10.4 2.9v-19.4h12.7v3.3h-8.8v5.4h8v3.3h-8v7.4zm15 0v-14.5h3.8v2.5h.1c.7-2.2 2.4-3.1 4.8-2.6v3.5c-.3-.1-1.1-.2-1.7-.2-1.8 0-3.1 1.2-3.1 3.1v8.2zm16.7.3c-4.4 0-7.1-3-7.1-7.5s2.7-7.5 7.1-7.5c4.4 0 7.1 3 7.1 7.5s-2.7 7.5-7.1 7.5zm0-3.1c2.1 0 3.2-1.9 3.2-4.4 0-2.6-1.1-4.4-3.2-4.4s-3.1 1.8-3.1 4.4c0 2.5 1 4.4 3.1 4.4zm13.8-5.6v8.4h-3.9v-14.5h3.6l.1 3c.8-2 2.3-3.2 4.5-3.2 3 0 5 2.1 5 5.5v9.2h-3.9v-8.5c0-1.9-1-2.9-2.6-2.9-1.7 0-2.8 1.1-2.8 3zm19.9-6.1v3h-2.7v7.3c0 .9.3 1.3 1.3 1.3.3 0 .9-.1 1.2-.1l.6 2.9c-.9.3-1.8.3-2.5.3-3 0-4.5-1.4-4.5-4.1v-7.6h-2v-3h2v-3.5h3.9v3.5z" class="e"/><path d="M1493.5 677.5q0-1.2.5-2.3.4-1.1 1.3-1.9.8-.9 1.9-1.3 1.1-.5 2.3-.5h388q1.2 0 2.3.5 1.1.4 1.9 1.3.9.8 1.3 1.9.5 1.1.5 2.3v288q0 1.2-.5 2.3-.4 1.1-1.3 1.9-.8.9-1.9 1.3-1.1.5-2.3.5h-388q-1.2 0-2.3-.5-1.1-.4-1.9-1.3-.9-.8-1.3-1.9-.5-1.1-.5-2.3z" class="d"/><path d="m1569.9 717.3 6.6-19.4h5.3l6.8 19.4h-4.5l-1.5-4.5h-6.8l-1.5 4.5zm6.8-7.6h4.9c-1-2.8-1.6-5.2-2.5-8.7-.9 3.5-1.4 5.9-2.4 8.7zm14.2 7.6v-19.4h7.6c4.4 0 7 2.8 7 6.6s-2.6 6.5-7.1 6.5h-3.5v6.3zm4-9.5h2.9c2.4 0 3.5-1.4 3.5-3.3 0-2-1.1-3.3-3.6-3.3h-2.8zm17.3-9.9v19.4h-4v-19.4zm18.4 19.7c-5.4 0-9.1-3.8-9.1-9.9 0-6.3 3.9-10 9-10 4.4 0 7.8 2.7 8.3 6.5h-4c-.6-1.9-2-3-4.2-3-3 0-5.1 2.3-5.1 6.4 0 4.1 2 6.5 5.1 6.5 2.8 0 4.5-1.6 4.5-4.1h-4.2v-3h8.1v2.4c0 5.1-3.5 8.2-8.4 8.2zm15.4 0c-2.8 0-4.8-1.5-4.8-4.3 0-3.3 2.6-4.2 5.5-4.5 2.5-.3 3.5-.3 3.5-1.4 0-1.2-.8-1.9-2.3-1.9-1.5 0-2.4.7-2.7 1.7l-3.6-.6c.7-2.6 3.1-4 6.3-4 3.2 0 6.2 1.4 6.2 4.9v9.8h-3.7v-2h-.1c-.7 1.4-2.1 2.3-4.3 2.3zm1.1-2.7c1.8 0 3.1-1.2 3.1-2.8v-1.6c-.5.4-2 .6-2.9.7-1.4.2-2.4.8-2.4 2 0 1.1.9 1.7 2.2 1.7zm17.6-12.1v3h-2.8v7.3c0 .9.4 1.3 1.4 1.3.3 0 .9-.1 1.2-.1l.6 2.9c-.9.3-1.8.3-2.6.3-2.9 0-4.5-1.4-4.5-4.1v-7.6h-2v-3h2v-3.5h3.9v3.5zm8.8 14.8c-4.4 0-7.2-2.9-7.2-7.5 0-4.5 2.8-7.5 7-7.5 3.8 0 6.9 2.4 6.9 7.4v1.1h-10c.1 2.4 1.4 3.6 3.4 3.6 1.3 0 2.4-.6 2.8-1.7l3.5.6c-.7 2.4-3 4-6.4 4zm-3.3-9h6.2c-.2-1.9-1.2-3.1-3-3.1-1.9 0-3 1.3-3.2 3.1zm15.3 8.7-4.3-14.5h4.1c.9 3.8 1.6 6.8 2.4 11 .9-4.1 1.7-7.2 2.6-11h3.6c1 3.8 1.7 6.8 2.6 11 .7-4.2 1.5-7.2 2.4-11h4.2l-4.4 14.5h-3.9c-1-3.4-2-6.3-2.7-10-.7 3.7-1.7 6.6-2.6 10zm23.6.3c-2.7 0-4.8-1.5-4.8-4.3 0-3.3 2.6-4.2 5.5-4.5 2.5-.3 3.5-.3 3.5-1.4 0-1.2-.8-1.9-2.3-1.9-1.5 0-2.4.7-2.7 1.7l-3.6-.6c.7-2.6 3.1-4 6.3-4 3.2 0 6.2 1.4 6.2 4.9v9.8h-3.7v-2h-.1c-.7 1.4-2.1 2.3-4.3 2.3zm1.1-2.7c1.9 0 3.1-1.2 3.1-2.8v-1.6c-.5.4-2 .6-2.9.7-1.4.2-2.4.8-2.4 2 0 1.1.9 1.7 2.2 1.7zm9.8 7.6.9-3c1.6.6 3.2.3 3.3-1.3l.1-.8-5.5-14.6h4.2c1.1 3.7 2.6 7.3 3.4 11.3.9-4 2.4-7.6 3.6-11.3h4.1l-6.2 16.3c-.9 2.3-2.4 3.8-5.4 3.8-1 0-2-.2-2.5-.4z" class="e"/><path d="M1987.5 397.5q0-1.2.5-2.3.4-1.1 1.3-1.9.8-.9 1.9-1.3 1.1-.5 2.3-.5h388q1.2 0 2.3.5 1.1.4 1.9 1.3.9.8 1.3 1.9.5 1.1.5 2.3v488q0 1.2-.5 2.3-.4 1.1-1.3 1.9-.8.9-1.9 1.3-1.1.5-2.3.5h-388q-1.2 0-2.3-.5-1.1-.4-1.9-1.3-.9-.8-1.3-1.9-.5-1.1-.5-2.3z" style="fill:#fff;stroke:#ed7100;stroke-width:3"/><path d="M2065 437.3v-19.4h4V434h8.4v3.3zm19.1.3c-2.8 0-4.9-1.5-4.9-4.3 0-3.3 2.7-4.2 5.5-4.5 2.6-.3 3.6-.3 3.6-1.4 0-1.2-.9-1.9-2.3-1.9-1.5 0-2.4.7-2.8 1.7l-3.5-.6c.7-2.6 3-4 6.3-4 3.1 0 6.2 1.4 6.2 4.9v9.8h-3.7v-2h-.2c-.7 1.4-2.1 2.3-4.2 2.3zm1.1-2.7c1.8 0 3.1-1.2 3.1-2.8v-1.6c-.5.4-2 .6-2.9.7-1.4.2-2.4.8-2.4 2 0 1.1.9 1.7 2.2 1.7zm10.3 2.4v-14.5h3.6l.2 2.8c.8-2.1 2.4-3 4.1-3 1.9 0 3.1 1 3.8 3.2.8-2.2 2.7-3.2 4.7-3.2 2.6 0 4.6 1.8 4.6 4.9v9.8h-3.9v-9c0-1.7-1-2.5-2.3-2.5-1.5 0-2.4 1.1-2.4 2.6v8.9h-3.8v-9.1c0-1.5-.9-2.4-2.3-2.4-1.3 0-2.4 1-2.4 2.7v8.8zm32.5.3c-2.4 0-3.6-1.4-4.1-2.6h-.2v2.3h-3.9v-19.4h3.9v7.3h.2c.5-1.1 1.6-2.6 4.1-2.6 3.2 0 5.9 2.5 5.9 7.5 0 4.8-2.5 7.5-5.9 7.5zm-1.2-3.2c2 0 3.1-1.8 3.1-4.3 0-2.6-1.1-4.4-3.1-4.4s-3.1 1.7-3.1 4.4c0 2.6 1.1 4.3 3.1 4.3zm15.2 3.2c-3.4 0-6-2.7-6-7.5 0-5 2.7-7.5 6-7.5 2.4 0 3.6 1.5 4.1 2.6h.1v-7.3h3.9v19.4h-3.8V435h-.2c-.5 1.2-1.8 2.6-4.1 2.6zm1.2-3.2c2 0 3.1-1.7 3.1-4.3 0-2.7-1.1-4.4-3.1-4.4-2.1 0-3.1 1.8-3.1 4.4 0 2.5 1 4.3 3.1 4.3zm14.3 3.2c-2.7 0-4.8-1.5-4.8-4.3 0-3.3 2.6-4.2 5.5-4.5 2.5-.3 3.5-.3 3.5-1.4 0-1.2-.8-1.9-2.3-1.9-1.5 0-2.4.7-2.7 1.7l-3.6-.6c.7-2.6 3.1-4 6.3-4 3.2 0 6.2 1.4 6.2 4.9v9.8h-3.7v-2h-.1c-.7 1.4-2.1 2.3-4.3 2.3zm1.1-2.7c1.9 0 3.1-1.2 3.1-2.8v-1.6c-.5.4-2 .6-2.9.7-1.4.2-2.4.8-2.4 2 0 1.1.9 1.7 2.2 1.7z" class="g"/><path d="M531 490.8q0-1.2.5-2.3.4-1.1 1.3-1.9.8-.9 1.9-1.3 1.1-.5 2.3-.5h388q1.2 0 2.3.5 1.1.4 1.9 1.3.9.8 1.3 1.9.5 1.1.5 2.3v288q0 1.2-.5 2.3-.4 1.1-1.3 2-.8.8-1.9 1.3-1.1.4-2.3.4H537q-1.2 0-2.3-.4-1.1-.5-1.9-1.3-.9-.9-1.3-2-.5-1.1-.5-2.3z" class="d"/><path d="M608.5 530.7v-19.4h7.6c4.4 0 6.9 2.5 6.9 6.3 0 2.6-1.2 4.6-3.4 5.5l4.1 7.6h-4.4l-3.7-7h-3.1v7zm4-10.2h2.8c2.5 0 3.6-1 3.6-2.9 0-2-1.1-3.1-3.6-3.1h-2.8zm19.6 10.5c-4.3 0-7.1-3.1-7.1-7.5 0-4.6 2.8-7.6 7.1-7.6 4.4 0 7.2 3 7.2 7.6 0 4.4-2.8 7.5-7.2 7.5zm0-3.1c2.1 0 3.2-1.9 3.2-4.5 0-2.5-1.1-4.4-3.2-4.4-2 0-3.1 1.9-3.1 4.4 0 2.6 1.1 4.5 3.1 4.5zm14.9 2.9c-3 0-5-2-5-5.4v-9.3h3.9v8.6c0 1.8 1 2.9 2.6 2.9 1.7 0 2.9-1.1 2.9-3.1v-8.4h3.9v14.6h-3.7l-.1-3.1c-.8 2.1-2.3 3.2-4.5 3.2zm18.8-14.7v3h-2.7v7.3c0 .9.4 1.4 1.3 1.4.3 0 1-.1 1.3-.2l.5 2.9c-.9.3-1.7.4-2.5.4-2.9 0-4.5-1.5-4.5-4.2v-7.6h-2v-3h2v-3.5h3.9v3.5zm8.9 14.9c-4.5 0-7.2-2.9-7.2-7.5 0-4.5 2.7-7.6 7-7.6 3.8 0 6.8 2.4 6.8 7.4v1.1h-9.9c0 2.4 1.4 3.6 3.3 3.6 1.4 0 2.4-.6 2.8-1.7l3.6.7c-.7 2.4-3 4-6.4 4zm-3.3-9h6.1c-.1-1.9-1.2-3.1-3-3.1s-3 1.3-3.1 3.1zm25.9 8.9c-4 0-6.9-2.4-7-5.7h3.9c.1 1.5 1.4 2.6 3.1 2.6 1.9 0 3.3-1.4 3.3-3.5s-1.4-3.5-3.4-3.5c-1.2 0-2.3.5-2.9 1.3l-3.6-.7 1-10.1h11.7v3.2h-8.5l-.5 5h.1c.7-1 2.2-1.7 3.9-1.7 3.5 0 6 2.7 6 6.4 0 3.9-2.9 6.7-7.1 6.7zm17 0c-4.3 0-7.3-2.3-7.3-5.7h4c0 1.5 1.4 2.4 3.3 2.4s3.2-1 3.2-2.6-1.3-2.7-3.6-2.7h-1.8v-3h1.8c1.9 0 3.2-1.1 3.2-2.6s-1.1-2.5-2.8-2.5c-1.7 0-3.1.9-3.1 2.4h-3.9c.1-3.3 3.1-5.6 7-5.6 4 0 6.7 2.4 6.7 5.4 0 2.2-1.5 3.8-3.7 4.2v.1c2.9.4 4.4 2.1 4.4 4.5 0 3.3-3.1 5.7-7.4 5.7z" class="e"/><path d="M2465.1 330.8q0-1.2.4-2.3.5-1.1 1.3-1.9.9-.9 2-1.3 1.1-.5 2.3-.5h388q1.1 0 2.2.5 1.1.4 2 1.3.8.8 1.3 1.9.4 1.1.5 2.3v288q-.1 1.2-.5 2.3-.5 1.1-1.3 2-.9.8-2 1.3-1.1.4-2.2.4h-388q-1.2 0-2.3-.4-1.1-.5-2-1.3-.8-.9-1.3-2-.4-1.1-.4-2.3z" class="h"/><path d="M2542.6 370.7v-19.4h7.5c4.5 0 7 2.7 7 6.5 0 3.9-2.6 6.5-7.1 6.5h-3.5v6.4zm4-9.6h2.9c2.4 0 3.5-1.3 3.5-3.3 0-1.9-1.1-3.3-3.5-3.3h-2.9zm13.2 9.6v-14.6h3.9v14.6zm1.9-16.5c-1.2 0-2.1-.9-2.1-2s.9-2 2.1-2c1.2 0 2.2.9 2.2 2s-1 2-2.2 2zm9.2 8v8.5h-3.9v-14.6h3.7v3c.8-2 2.3-3.2 4.6-3.2 3 0 5 2.1 5 5.5v9.3h-3.9v-8.6c0-1.8-1-2.9-2.7-2.9-1.6 0-2.8 1.1-2.8 3zm12.7 13.9v-20h3.8v2.5h.2c.5-1.2 1.7-2.7 4.2-2.7 3.2 0 5.9 2.5 5.9 7.5 0 4.9-2.6 7.5-6 7.5-2.3 0-3.5-1.4-4.1-2.6h-.1v7.8zm7-8.3c2 0 3.1-1.8 3.1-4.4 0-2.6-1.1-4.3-3.1-4.3-2.1 0-3.2 1.7-3.2 4.3 0 2.6 1.2 4.4 3.2 4.4zm16.3 3.2c-4.4 0-7.1-3.1-7.1-7.5 0-4.6 2.7-7.6 7.1-7.6 4.4 0 7.1 3 7.1 7.6 0 4.4-2.7 7.5-7.1 7.5zm0-3.1c2.1 0 3.2-1.9 3.2-4.5 0-2.5-1.1-4.4-3.2-4.4s-3.1 1.9-3.1 4.4c0 2.6 1 4.5 3.1 4.5zm9.9 2.8v-14.6h3.9v14.6zm1.9-16.5c-1.2 0-2.1-.9-2.1-2s.9-2 2.1-2c1.2 0 2.2.9 2.2 2s-1 2-2.2 2zm9.2 8v8.5h-3.9v-14.6h3.7v3c.8-2 2.3-3.2 4.5-3.2 3.1 0 5 2.1 5 5.5v9.3h-3.9v-8.6c0-1.8-.9-2.9-2.6-2.9-1.7 0-2.8 1.1-2.8 3zm19.9-6.1v3h-2.7v7.3c0 .9.4 1.4 1.3 1.4.3 0 1-.1 1.3-.2l.5 2.9c-.9.3-1.7.4-2.5.4-2.9 0-4.5-1.5-4.5-4.2v-7.6h-2v-3h2v-3.5h3.9v3.5z" class="i"/><path d="M2465.1 690.8q0-1.2.4-2.3.5-1.1 1.3-1.9.9-.9 2-1.3 1.1-.5 2.3-.5h388q1.1 0 2.2.5 1.1.4 2 1.3.8.8 1.3 1.9.4 1.1.5 2.3v288q-.1 1.2-.5 2.3-.5 1.1-1.3 2-.9.8-2 1.3-1.1.4-2.2.4h-388q-1.2 0-2.3-.4-1.1-.5-2-1.3-.8-.9-1.3-2-.4-1.1-.4-2.3z" class="h"/><path d="M2549.7 731c-4.7 0-7.7-2.2-7.8-6.3h3.9c.1 1.9 1.7 2.9 3.8 2.9 2.2 0 3.6-1 3.6-2.5 0-1.3-1.3-1.9-3.4-2.4l-2.1-.6c-3.3-.8-5.3-2.4-5.3-5.2 0-3.5 3.1-5.9 7.3-5.9 4.3 0 7.1 2.4 7.2 5.8h-3.8c-.2-1.5-1.4-2.4-3.4-2.4s-3.2.9-3.2 2.2c0 2 3 2.4 4.9 2.9 3.2.8 5.8 2.4 5.8 5.6 0 3.6-2.8 5.9-7.5 5.9zm10.3-.3v-19.4h13v3.3h-9v4.6h8.3v3.3h-8.3v4.9h9v3.3zm23.3.3c-4.6 0-7.6-2.2-7.7-6.3h3.9c.1 1.9 1.7 2.9 3.8 2.9 2.1 0 3.5-1 3.5-2.5 0-1.3-1.2-1.9-3.3-2.4l-2.1-.6c-3.3-.8-5.3-2.4-5.3-5.2 0-3.5 3.1-5.9 7.3-5.9 4.3 0 7.1 2.4 7.2 5.8h-3.9c-.1-1.5-1.4-2.4-3.3-2.4-2.1 0-3.2.9-3.2 2.2-.1 2 2.9 2.4 4.8 2.9 3.3.8 5.8 2.4 5.8 5.6 0 3.6-2.7 5.9-7.5 5.9z" class="i"/><path d="M1491.3 330.8q0-1.2.4-2.3.5-1.1 1.3-1.9.9-.9 2-1.3 1.1-.5 2.3-.5h388q1.1 0 2.2.5 1.1.4 2 1.3.8.8 1.3 1.9.4 1.1.5 2.3v288q-.1 1.2-.5 2.3-.5 1.1-1.3 2-.9.8-2 1.3-1.1.4-2.2.4h-388q-1.2 0-2.3-.4-1.1-.5-2-1.3-.8-.9-1.3-2-.4-1.1-.4-2.3z" style="fill:#fff;stroke:#7aa116;stroke-width:3"/><path d="M1575.9 371c-4.7 0-7.6-2.2-7.8-6.3h3.9c.1 1.9 1.7 2.9 3.9 2.9 2.1 0 3.5-1 3.5-2.5 0-1.3-1.2-1.9-3.4-2.4l-2.1-.6c-3.3-.8-5.2-2.4-5.2-5.2 0-3.5 3-5.9 7.2-5.9 4.3 0 7.2 2.4 7.2 5.8h-3.8c-.2-1.5-1.4-2.4-3.4-2.4s-3.2.9-3.2 2.2c0 2 3 2.4 4.9 2.9 3.2.8 5.8 2.4 5.8 5.6 0 3.6-2.8 5.9-7.5 5.9zm17.2-.1c-4.2 0-7.3-2.3-7.3-5.7h4c0 1.5 1.4 2.4 3.3 2.4s3.2-1 3.2-2.6-1.3-2.7-3.6-2.7h-1.8v-3h1.8c1.9 0 3.2-1.1 3.2-2.6s-1.1-2.5-2.8-2.5c-1.7 0-3.1.9-3.1 2.4h-3.8c0-3.3 3-5.6 6.9-5.6 4 0 6.7 2.4 6.7 5.4 0 2.2-1.5 3.8-3.7 4.2v.1c2.9.4 4.4 2.1 4.4 4.5 0 3.3-3.1 5.7-7.4 5.7z" class="k"/><path d="M2465.1 684.8h60v60h-60z" class="i"/><path d="M2509.3 730.6c0 2-1.8 3.7-3.8 3.7-2 0-3.7-1.7-3.7-3.7 0-1.8 1.3-3.3 3-3.7v-2.3h-9v3.8c1.7.4 3 1.9 3 3.7 0 2-1.8 3.7-3.8 3.7-2 0-3.7-1.7-3.7-3.7 0-1.8 1.3-3.3 2.9-3.7v-3.8h-9v2.3c1.7.3 3 1.9 3 3.7 0 2-1.7 3.7-3.7 3.7s-3.7-1.7-3.7-3.7c0-1.8 1.3-3.4 2.9-3.7v-3.1c0-.4.4-.8.8-.8h9.7v-4.5h-9.7c-.4 0-.8-.3-.8-.7v-13.5c0-.4.4-.7.8-.7h21c.4 0 .7.3.7.7v13.5c0 .4-.3.8-.7.8h-9.8v4.5h9.8c.4 0 .7.3.7.7v3.1c1.7.4 3 1.9 3 3.7zm-14.2-.8c-1.3 0-2.3 1.1-2.3 2.3 0 1.2 1 2.2 2.3 2.2 1.2 0 2.2-1 2.2-2.2 0-1.2-1-2.3-2.3-2.3zm-10.5-1.5c-1.2 0-2.2 1.1-2.2 2.3 0 1.2 1 2.3 2.2 2.3 1.2 0 2.3-1.1 2.3-2.3 0-1.2-1.1-2.3-2.3-2.3zm31.5-13.5c0 4.4-1.4 8.7-3.9 12.3l-1.3-.9c2.4-3.3 3.7-7.2 3.7-11.4 0-10.7-8.7-19.4-19.5-19.4-10.7 0-19.5 8.7-19.5 19.4 0 4.2 1.3 8.1 3.7 11.4l-1.3.9c-2.5-3.6-3.9-7.8-3.9-12.3 0-11.6 9.4-21 21-21s21 9.4 21 21zm-30.7-8.8v10.2l5.8-5.2zm18.2-.9h-17l8.5 7.2 8.5-7.2zm1.3 11v-10.2l-5.8 5zm3 14.5c0-1.3-1.1-2.3-2.3-2.3-1.2 0-2.3 1-2.3 2.3 0 1.2 1.1 2.2 2.3 2.2 1.2 0 2.3-1 2.3-2.2zm-21.3-13.5h17l-5.7-5.2-2.3 2q-.3.2-.5.2-.3 0-.5-.2l-2.3-2-5.7 5.2z" class="c"/><path d="M2465.1 324.8h60v60h-60z" class="i"/><path d="M2513.1 354.8c0 10-8.1 18-18 18-10 0-18-8-18-18 0-9.9 8-18 18-18 2.5 0 4.9.5 7.2 1.5l-.6 1.4q-3.2-1.3-6.6-1.3c-9.2 0-16.5 7.3-16.5 16.4 0 9.1 7.3 16.5 16.5 16.5 9.1 0 16.4-7.4 16.4-16.5 0-2.3-.4-4.5-1.3-6.6l1.4-.6q1.5 3.4 1.5 7.2zm-10.1-9 1.1-1c-.5-.7-.8-1.5-.8-2.3 0-2.3 1.9-4.2 4.1-4.2 2.3 0 4.1 1.9 4.1 4.2 0 2.2-1.8 4.1-4.1 4.1-.8 0-1.6-.3-2.3-.8l-1.1 1.1c1.9 2.1 3 4.9 3 7.9 0 6.7-5.3 12-12 12-6.6 0-12-5.3-12-12 0-6.6 5.4-12 12-12 3 0 5.8 1.2 7.9 3zm1.9-3.3c0 1.4 1.2 2.6 2.6 2.6 1.4 0 2.6-1.2 2.6-2.6 0-1.5-1.2-2.6-2.6-2.6q-.5 0-1 .2t-.9.5q-.3.4-.5.9t-.2 1zm-1.9 5.5-3.1 3.2c.7 1 1.2 2.2 1.2 3.6 0 3.3-2.7 6-6 6s-6-2.7-6-6 2.7-6 6-6c1.4 0 2.7.5 3.7 1.3l3.2-3.2q-.7-.6-1.5-1.1-.8-.5-1.7-.8-.9-.3-1.8-.5t-1.9-.2c-5.8 0-10.5 4.8-10.5 10.5 0 5.8 4.7 10.6 10.5 10.6s10.5-4.8 10.5-10.6c0-2.6-.9-5-2.6-6.8zm-8.4 6.3 3.1-3.1c-.7-.5-1.6-.9-2.6-.9-2.5 0-4.5 2.1-4.5 4.5 0 2.5 2 4.5 4.5 4.5s4.5-2 4.5-4.5c0-.9-.3-1.8-.8-2.6l-3.2 3.2-1-1.1z" class="c"/><path d="M1011 391.5h60v60h-60z" class="e"/><path d="M1062 421.5c0 6.5-3 12.6-8.2 16.6q-1.9 1.5-4.1 2.5-.9.5-1.9.8-3.2 1.1-6.8 1.1c-3.4 0-6.9-.8-9.9-2.5-6.9-3.6-11.1-10.7-11.1-18.5q0-.7.1-1.3c.5-8.7 6.5-16.3 14.9-18.8q2.9-.9 6-.9c3.6 0 7.1.9 10.2 2.7 6.7 3.7 10.8 10.7 10.8 18.3zm-1.5 0c0-7-3.8-13.4-9.8-16.9-1 .3-2.1.6-3.4 1l-.5-1.4c.7-.3 1.3-.4 1.9-.6-2.4-1-5.1-1.6-7.7-1.6q-1.9 0-3.8.4c1 .5 1.8 1 2.5 1.6l-.9 1.2c-1.1-.8-2.2-1.5-3.6-2.3-7.4 2.3-12.7 8.8-13.6 16.5 1.6-.4 3-.5 4.7-.6v1.5c-1.7.1-3.2.2-4.8.6v.6c0 6.5 3.2 12.5 8.5 16.1-1-2.8-1.5-5.5-1.5-8 0-1.5.3-2.7.6-4 0-.3.1-.6.2-.9l1.4.3c0 .3-.1.6-.1.9-.3 1.3-.5 2.4-.5 3.7 0 2.9.6 5.9 1.9 9.2 2.8 1.5 5.8 2.2 9 2.2 2 0 4.1-.4 6-1 .7-1.4 1.3-2.9 1.8-4.5l1.4.5c-.3 1.1-.7 2.2-1.2 3.3q1.8-.9 3.4-2.1l-.8-1.8 1.3-.7c.3.5.5 1.1.7 1.6 4.4-3.7 6.9-9.1 6.9-14.8zm-25.2-1.7c0 2-1.7 3.7-3.8 3.7-2 0-3.7-1.7-3.7-3.7 0-2.1 1.7-3.8 3.7-3.8 2.1 0 3.8 1.7 3.8 3.8zm-1.5 0c0-1.3-1-2.3-2.3-2.3q-.4 0-.8.2t-.8.5q-.3.3-.5.7-.1.4-.1.9c0 1.2 1 2.2 2.2 2.2 1.3 0 2.3-1 2.3-2.2zm5.5-11.8c0-2.1 1.7-3.7 3.7-3.7 2.1 0 3.8 1.6 3.8 3.7s-1.7 3.8-3.7 3.8c-2.1 0-3.8-1.7-3.8-3.8zm1.5 0c0 1.3 1 2.3 2.3 2.3 1.2 0 2.2-1 2.2-2.3 0-1.2-1-2.2-2.2-2.2-1.3 0-2.3 1-2.3 2.2zm13.1 22.6c0 2.1-1.7 3.8-3.8 3.8-2 0-3.7-1.7-3.7-3.8 0-2.1 1.6-3.8 3.7-3.8s3.8 1.7 3.8 3.8zm-1.5 0c0-1.2-1-2.2-2.3-2.2-1.2 0-2.2 1-2.2 2.2 0 1.2 1 2.3 2.2 2.3 1.3 0 2.3-1 2.3-2.3zm-13.4-20c-1.5 1.4-2.8 2.9-4.2 5.1l-1.3-.8c1.5-2.4 2.9-4 4.5-5.4l1 1.1zm-2.3 9.7c3.7 1.3 6.9 3.3 10 6.3l-1 1.1c-3-2.9-6-4.8-9.5-5.9zm10.1-8.9c2.8 4.3 4.3 9 4.7 14l-1.5.2c-.3-4.8-1.8-9.3-4.5-13.3z" class="c"/><path d="M51 590.8q0-1.2.5-2.3.4-1.1 1.3-1.9.8-.9 1.9-1.3 1.1-.5 2.3-.5h308q1.2 0 2.3.5 1.1.4 1.9 1.3.9.8 1.3 1.9.5 1.1.5 2.3v148q0 1.2-.5 2.3-.4 1.1-1.3 2-.8.8-1.9 1.3-1.1.4-2.3.4H57q-1.2 0-2.3-.4-1.1-.5-1.9-1.3-.9-.9-1.3-2-.5-1.1-.5-2.3z"/><path d="M119.6 652.1v-32.5h19.8v3.7h-15.6v10.6h14.6v3.7h-14.6v10.9h15.8v3.6zm30.3-14.6v14.6H146v-24.4h3.8v4.6c1.6-3.5 4.2-4.9 7.4-4.9 5 0 8.3 3.1 8.3 9.2v15.5h-3.9V637c0-3.8-2.1-6-5.5-6-3.5 0-6.2 2.3-6.2 6.5zm31.6 15.2c-6.1 0-10.3-4.9-10.3-12.7 0-7.7 4.3-12.6 10.3-12.6 4.8 0 6.3 3 7.1 4.2h.3v-12h3.9v32.5H189v-3.7h-.4c-.8 1.3-2.4 4.3-7.1 4.3zm.6-3.6c4.4 0 6.9-3.7 6.9-9.1 0-5.4-2.4-9.1-6.9-9.1-4.6 0-6.9 4-6.9 9.1s2.4 9.1 6.9 9.1zm43.4 3.6c-7.7 0-12.7-4.9-12.7-11.6v-21.5h4.1v21.1c0 4.7 3.3 8.1 8.6 8.1s8.5-3.4 8.5-8.1v-21.1h4.2v21.5c0 6.7-5 11.6-12.7 11.6zm28.3 0c-5 0-8.5-2.3-9.3-6.5l3.7-.9c.7 2.7 2.7 3.9 5.6 3.9 3.4 0 5.6-1.7 5.6-3.7q0-2.5-3.6-3.3l-4.1-1c-4.4-1-6.5-3.2-6.5-6.7 0-4.1 3.8-7.1 9-7.1 5 0 7.7 2.5 8.8 5.9l-3.6.9c-.6-1.7-2-3.4-5.1-3.4-2.9 0-5.1 1.5-5.1 3.5 0 1.8 1.2 2.8 4.1 3.5l3.7.9c4.4 1 6.5 3.2 6.5 6.6 0 4.2-3.9 7.4-9.7 7.4zm25.6 0c-7.1 0-11.4-5.1-11.4-12.6 0-7.4 4.3-12.7 10.9-12.7 5.2 0 10.6 3.2 10.6 12.2v1.7h-17.6c.2 5.1 3.2 7.9 7.5 7.9 2.9 0 5-1.3 6-3.8l3.8 1.1c-1.2 3.6-4.8 6.2-9.8 6.2zm-7.5-14.7h13.7c-.4-4.2-2.7-7.1-6.7-7.1-4.2 0-6.7 3.3-7 7.1zm23.3 14.1v-24.4h3.8v3.8h.2c.9-2.5 3.5-4.1 6.4-4.1.5 0 1.5 0 1.9.1v3.9c-.2 0-1.3-.2-2.3-.2-3.5 0-6.1 2.4-6.1 5.7v15.2zM63.5 698.3c0-7 2.4-15.8 5.6-21.2H73c-3.4 6.9-5.5 14.9-5.5 21.2 0 5.8 1.7 11.6 5.5 19.4h-3.9c-3.7-6.3-5.6-13-5.6-19.4zM84 711.6l-7.4-24.4h4.1c2 7.2 3.6 12.2 5.3 20.2 1.7-7.7 3.4-13.1 5.3-20.2h4.2c1.8 7.1 3.5 12.3 5.1 20.1 1.7-7.7 3.4-13 5.3-20.1h4.2l-7.4 24.4h-3.9c-1.9-6.7-3.9-12.9-5.5-19.9-1.6 7.1-3.5 13.2-5.4 19.9zm40.5.5c-7.1 0-11.4-5-11.4-12.5s4.3-12.7 10.9-12.7c5.2 0 10.7 3.2 10.7 12.2v1.6H117c.2 5.1 3.2 7.9 7.5 7.9 2.9 0 5.1-1.2 6-3.7l3.8 1c-1.2 3.7-4.8 6.2-9.8 6.2zm-7.4-14.7h13.6c-.4-4.1-2.6-7-6.7-7s-6.7 3.3-6.9 7zm34.5 14.7c-4.6 0-6.3-2.9-7.1-4.3h-.4v3.8h-3.8v-32.5h3.9v12h.3c.8-1.3 2.3-4.2 7.1-4.2 6.1 0 10.3 4.8 10.3 12.6 0 7.7-4.2 12.6-10.3 12.6zm-.6-3.5c4.6 0 6.9-4.1 6.9-9.2 0-5-2.2-9-6.9-9-4.5 0-6.8 3.6-6.8 9s2.4 9.2 6.8 9.2zm40.5 3.5c-4.6 0-6.2-2.9-7.1-4.3h-.4v3.8h-3.8v-32.5h3.9v12h.3c.9-1.3 2.4-4.2 7.1-4.2 6.1 0 10.4 4.8 10.4 12.6 0 7.7-4.3 12.6-10.4 12.6zm-.6-3.5c4.6 0 7-4.1 7-9.2 0-5-2.3-9-7-9-4.4 0-6.8 3.6-6.8 9s2.4 9.2 6.8 9.2zm16.7 3v-24.4h3.8v3.8h.2c.9-2.5 3.5-4.1 6.4-4.1h1.9v4c-.2-.1-1.3-.3-2.3-.3-3.5 0-6.1 2.4-6.1 5.7v15.3zm26 .5c-6.7 0-11.1-5-11.1-12.6s4.4-12.6 11.1-12.6c6.6 0 11.1 5 11.1 12.6s-4.5 12.6-11.1 12.6zm0-3.5c4.9 0 7.1-4.3 7.1-9.1s-2.2-9.1-7.1-9.1c-4.9 0-7.1 4.3-7.1 9.1s2.2 9.1 7.1 9.1zm21.5 3-7.4-24.4h4.2c1.9 7.2 3.6 12.2 5.3 20.2 1.6-7.7 3.3-13.1 5.2-20.2h4.2c1.9 7.1 3.5 12.3 5.1 20.1 1.7-7.7 3.4-13 5.3-20.1h4.2l-7.4 24.4h-3.9c-1.9-6.7-3.8-12.9-5.4-19.9-1.7 7.1-3.6 13.2-5.5 19.9zm39.4.5c-5 0-8.5-2.2-9.4-6.4l3.7-.9c.7 2.7 2.7 3.9 5.6 3.9 3.4 0 5.6-1.7 5.6-3.7q0-2.5-3.6-3.4l-4-.9c-4.4-1.1-6.6-3.3-6.6-6.7 0-4.2 3.9-7.1 9.1-7.1 5 0 7.6 2.4 8.7 5.9l-3.5.9c-.7-1.8-2.1-3.5-5.2-3.5-2.9 0-5.1 1.5-5.1 3.6 0 1.8 1.3 2.8 4.1 3.5l3.7.8c4.4 1.1 6.5 3.3 6.5 6.6 0 4.3-3.9 7.4-9.6 7.4zm25.5 0c-7 0-11.4-5-11.4-12.5s4.3-12.7 11-12.7c5.1 0 10.6 3.2 10.6 12.2v1.6h-17.6c.2 5.1 3.1 7.9 7.4 7.9 2.9 0 5.1-1.2 6-3.7l3.8 1c-1.1 3.7-4.8 6.2-9.8 6.2zm-7.4-14.7h13.6c-.4-4.1-2.6-7-6.6-7-4.2 0-6.8 3.3-7 7zm23.2 14.2v-24.4h3.8v3.8h.3c.9-2.5 3.4-4.1 6.3-4.1h2v4c-.3-.1-1.3-.3-2.4-.3-3.5 0-6.1 2.4-6.1 5.7v15.3zm15.5 6.1c3.8-8 5.4-13.7 5.4-19.4 0-6.3-2-14.3-5.4-21.2h3.8c3.3 5.4 5.6 14.2 5.6 21.2 0 6.5-2 13.2-5.6 19.4z" class="c"/><path d="M1051 497.5q0-1.2.5-2.3.4-1.1 1.3-1.9.8-.9 1.9-1.3 1.1-.5 2.3-.5h308q1.2 0 2.3.5 1.1.4 1.9 1.3.9.8 1.3 1.9.5 1.1.5 2.3v148q0 1.2-.5 2.3-.4 1.1-1.3 1.9-.8.9-1.9 1.3-1.1.5-2.3.5h-308q-1.2 0-2.3-.5-1.1-.4-1.9-1.3-.9-.8-1.3-1.9-.5-1.1-.5-2.3z" class="e"/><path d="M1081.7 597.3v-46.8h28.3v5.2h-22.3v16.1h20.2v5.2h-20.2v20.3zm35.4 0v-35.2h5.5v5.4h.4c1.3-3.5 4.9-5.9 9.1-5.9.8 0 2.2.1 2.8.1v5.7c-.3 0-1.8-.3-3.3-.3-5.1 0-8.8 3.4-8.8 8.2v22zm37.5.7c-9.6 0-16-7.2-16-18.1 0-11 6.4-18.2 16-18.2s16 7.2 16 18.2c0 10.9-6.4 18.1-16 18.1zm0-5c7.1 0 10.3-6.2 10.3-13.1 0-7-3.2-13.1-10.3-13.1-7 0-10.3 6.1-10.3 13.1 0 6.9 3.3 13.1 10.3 13.1zm29.9-16.8v21.1h-5.6v-35.2h5.4v6.5c2.3-4.9 6.1-6.9 10.8-6.9 7.1 0 11.9 4.4 11.9 13.3v22.3h-5.7v-21.9c0-5.4-3-8.6-7.9-8.6-5.1 0-8.9 3.4-8.9 9.4zm46.2-14.1v4.9h-7.2v21.2c0 3.1 1.1 4.5 4.1 4.5.7 0 2-.2 2.9-.4l1.2 4.8c-1.2.4-2.8.6-4.2.6-6.1 0-9.7-3.4-9.7-9.1V567h-5.3v-4.9h5.3v-8.3h5.7v8.3zm21.4 35.9c-10.2 0-16.5-7.2-16.5-18s6.2-18.3 15.8-18.3c7.5 0 15.3 4.6 15.3 17.6v2.3h-25.4c.3 7.4 4.6 11.4 10.8 11.4 4.1 0 7.3-1.8 8.6-5.4l5.4 1.5c-1.6 5.3-6.8 8.9-14 8.9zm-10.7-21.2h19.6c-.6-5.9-3.8-10.1-9.6-10.1-6 0-9.7 4.8-10 10.1zm39.1-.6v21.1h-5.7v-35.2h5.4l.1 6.5c2.2-4.9 6-6.9 10.7-6.9 7.1 0 11.9 4.4 11.9 13.3v22.3h-5.7v-21.9c0-5.4-3-8.6-7.9-8.6-5 0-8.8 3.4-8.8 9.4zM1326 598c-8.8 0-14.9-7-14.9-18.2 0-11.1 6.2-18.1 14.9-18.1 6.9 0 9 4.2 10.2 6.1h.4v-17.3h5.7v46.8h-5.5v-5.5h-.6c-1.2 2-3.5 6.2-10.2 6.2zm.8-5c6.4 0 9.9-5.4 9.9-13.3 0-7.7-3.4-12.9-9.9-12.9-6.6 0-9.9 5.6-9.9 12.9 0 7.4 3.4 13.3 9.9 13.3z" class="c"/><path d="M1533.5 777.5q0-1.2.5-2.3.4-1.1 1.3-1.9.8-.9 1.9-1.3 1.1-.5 2.3-.5h308q1.2 0 2.3.5 1.1.4 1.9 1.3.9.8 1.3 1.9.5 1.1.5 2.3v148q0 1.2-.5 2.3-.4 1.1-1.3 1.9-.8.9-1.9 1.3-1.1.5-2.3.5h-308q-1.2 0-2.3-.5-1.1-.4-1.9-1.3-.9-.8-1.3-1.9-.5-1.1-.5-2.3z" class="e"/><path d="m1644.4 877.3 17-46.8h6.9l17.2 46.8h-6.2l-4.7-13.1h-19.3l-4.5 13.1zm12.7-18.3h15.6c-3.3-9.1-4.6-12.3-7.9-23.8-3.4 11.9-4.6 14.5-7.7 23.8zm35.7 18.3v-46.8h16.1c10.9 0 15.9 6.5 15.9 14.8 0 8.4-5 15-15.9 15h-10.1v17zm6-22.2h9.8c7.4 0 10.2-4.2 10.2-9.8 0-5.5-2.8-9.6-10.3-9.6h-9.7zm41.1-24.6v46.8h-6v-46.8z" class="c"/><path d="M1492.5 671.5h60v60h-60z" class="e"/><path d="M1518 713.2h2.2v-1.5h-2.2zm3.8 0h2.2v-1.5h-2.3v1.5zm-7.4-21.2v19.7h2.2v1.5h-2.2v8.5q0 .4-.4.7c-.1.1-.3.1-.4.1h-.2l-11.3-3.8-.2-.2q-.1 0-.2-.1 0-.1-.1-.2v-31.4c0-.2.2-.5.4-.6l11.3-5.6c.2-.1.5-.1.7 0 .2.2.4.4.4.7v9.3h2.2v1.5h-2.2zm-1.5-9.6-9.8 4.8v30.1l9.8 3.3v-38.2zm12.7 30.8h2.3v-1.5h-2.3v1.5zm.1-21.2h2.2v-1.5h-2.2zm-3.8 0h2.2v-1.5h-2.2zm-3.7 0h2.2v-1.5h-2.2zm25.4 25.9c0 .3-.2.6-.5.7l-11.2 3.8h-.6l-.1-.1c-.2-.2-.3-.4-.3-.6v-8.5h-1.5v-1.5h1.5V692h-1.5v-1.5h1.5v-9.3c0-.3.1-.5.3-.6.2-.2.5-.2.7-.1l11.3 5.6c.3.1.4.4.4.7zm-1.5-30.7-9.7-4.8v38.2l9.7-3.3v-30.1zm-17.3 9.6-1.4-.6-3.7 9.9 1.4.6zm5.1 4.8c.3-.3.3-.8 0-1.1l-3-3-1.1 1.1 2.5 2.4-2.5 2.5 1.1 1.1 3-3zm-11.6 3-3-3c-.3-.3-.3-.8 0-1.1l3-3.1 1.1 1.2-2.5 2.4 2.5 2.5z" class="c"/><path d="M1987.5 391.5h60v60h-60z" class="g"/><path d="M2010.2 417.4c-.1-.2-.4-.4-.7-.4-.3 0-.6.2-.7.4l-11.4 24c-.1.3-.1.5 0 .8.1.2.4.3.7.3h10.9c.3 0 .6-.1.7-.4l6-12.7c.1-.2.1-.4 0-.6l-5.5-11.3zm-1.6 23.5h-9.4l10.3-21.5 4.7 9.6-5.6 11.9zm28.4-9h-3.7l-14.8-31.1q-.1-.1-.1-.2-.1 0-.2-.1-.1 0-.2-.1h-13.3c-.4 0-.7.3-.7.8v8.9q0 .3.2.6c.1.1.3.2.5.2h6.3l14.9 31.1c.1.2.4.4.7.4h10.4c.5 0 .8-.3.8-.8v-8.9q0-.2-.1-.3 0-.2-.1-.3-.1-.1-.3-.2h-.3zm-.7 9h-9.3l-14.8-31.1c-.1-.2-.4-.4-.7-.4h-6v-7.5h11.9l14.7 31.1c.2.2.4.4.7.4h3.5v7.5z" class="c"/><path d="M2027.5 497.5q0-1.2.5-2.3.4-1.1 1.3-1.9.8-.9 1.9-1.3 1.1-.5 2.3-.5h308q1.2 0 2.3.5 1.1.4 1.9 1.3.9.8 1.3 1.9.5 1.1.5 2.3v148q0 1.2-.5 2.3-.4 1.1-1.3 1.9-.8.9-1.9 1.3-1.1.5-2.3.5h-308q-1.2 0-2.3-.5-1.1-.4-1.9-1.3-.9-.8-1.3-1.9-.5-1.1-.5-2.3z" class="g"/><path d="m2050.4 597.3 17-46.8h6.9l17.2 46.8h-6.3l-4.7-13.1h-19.3l-4.5 13.1zm12.7-18.3h15.6c-3.2-9.1-4.5-12.3-7.9-23.8-3.4 11.9-4.5 14.5-7.7 23.8zm40.6-2.8v21.1h-5.6v-35.2h5.4v6.5c2.3-4.9 6.1-6.9 10.8-6.9 7.1 0 11.9 4.4 11.9 13.3v22.3h-5.7v-21.9c0-5.4-3-8.6-7.9-8.6-5.1 0-8.9 3.4-8.9 9.4zm42.2 21.9c-6.6 0-11.9-3.9-11.9-10.8 0-8.1 7.1-9.5 13.6-10.4 6.4-.8 9-.5 9-3.4 0-4.3-2.4-6.8-7.3-6.8-5.1 0-7.8 2.7-8.9 5.1l-5.4-1.8c2.7-6.4 8.7-8.3 14.1-8.3 4.7 0 13.2 1.4 13.2 12.4v23.2h-5.6v-4.8h-.3c-1.2 2.5-4.5 5.6-10.5 5.6zm1-5c6.3 0 9.7-4.2 9.7-8.5v-4.9c-.9 1.1-7.1 1.7-9.2 2-4.1.5-7.8 1.9-7.8 5.9 0 3.6 3.1 5.5 7.3 5.5zm31-42.6v46.8h-5.7v-46.8zm9.7 59.5 1.4-4.9c3.8 1.1 6.4.6 8.3-4.7l1-2.9-13.4-35.4h6.1c3.4 9.9 7.5 19.5 10.2 29.9 2.8-10.4 6.9-20 10.3-29.9h6.1l-15.4 40.4c-2.1 5.6-5.5 8.2-10.5 8.2-2 0-3.6-.4-4.1-.7zm51.4-47.9v4.9h-7.2v21.2c0 3.1 1.2 4.5 4.2 4.5.7 0 1.9-.2 2.9-.4l1.1 4.8c-1.1.4-2.7.6-4.2.6-6.1 0-9.6-3.4-9.6-9.1V567h-5.3v-4.9h5.3v-8.3h5.6v8.3zm7.3 35.2v-35.2h5.6v35.2zm2.9-40.9c-2.2 0-3.9-1.7-3.9-3.8 0-2 1.7-3.7 3.9-3.7s3.9 1.7 3.9 3.7c0 2.1-1.7 3.8-3.9 3.8zm26.9 41.6c-9.5 0-15.9-7.2-15.9-18.1 0-11 6.4-18.2 15.9-18.2 6.8 0 12.4 3.6 14.3 9.7l-5.5 1.5c-1-3.6-4.1-6.1-8.8-6.1-7 0-10.2 6.1-10.2 13.1 0 6.9 3.2 13.1 10.2 13.1 4.8 0 8-2.7 9-6.5l5.4 1.5c-1.9 6.3-7.5 10-14.4 10zm34.4 0c-7.2 0-12.2-3.2-13.5-9.2l5.4-1.3c1 3.8 3.9 5.6 8.1 5.6 4.9 0 8-2.5 8-5.4 0-2.4-1.7-4-5.1-4.8l-5.9-1.4c-6.3-1.5-9.4-4.6-9.4-9.6 0-6 5.5-10.2 13-10.2 7.2 0 11 3.5 12.6 8.5l-5.1 1.3c-.9-2.5-2.9-5-7.5-5-4.1 0-7.3 2.2-7.3 5.1 0 2.6 1.8 4 5.9 5l5.3 1.3c6.4 1.5 9.4 4.7 9.4 9.5 0 6.1-5.6 10.6-13.9 10.6z" class="c"/><path d="M2027.5 697.5q0-1.2.5-2.3.4-1.1 1.3-1.9.8-.9 1.9-1.3 1.1-.5 2.3-.5h308q1.2 0 2.3.5 1.1.4 1.9 1.3.9.8 1.3 1.9.5 1.1.5 2.3v148q0 1.2-.5 2.3-.4 1.1-1.3 1.9-.8.9-1.9 1.3-1.1.5-2.3.5h-308q-1.2 0-2.3-.5-1.1-.4-1.9-1.3-.9-.8-1.3-1.9-.5-1.1-.5-2.3z" class="g"/><path d="M2112.7 797.3v-46.8h28.5v5.2h-22.6V771h21v5.3h-21V792h22.9v5.3zm37.9 0v-35.2h5.5l.1 6.5c1.7-4.8 5.7-7.1 9.8-7.1 4.6 0 7.7 2.8 9 7.2 1.6-4.5 5.9-7.2 11-7.2 6.1 0 11.1 3.9 11.1 12.1v23.7h-5.7v-23.6c0-5-3.3-7-7.1-7-4.7 0-7.6 3.2-7.6 7.6v23h-5.7v-24.1c0-3.9-2.9-6.5-6.9-6.5-4.1 0-7.8 2.9-7.8 8.4v22.2zm66.2.8c-6.6 0-11.9-3.9-11.9-10.8 0-8.1 7.1-9.5 13.6-10.4 6.4-.8 9-.5 9-3.4 0-4.3-2.4-6.8-7.3-6.8-5.1 0-7.8 2.7-8.9 5.1l-5.4-1.8c2.7-6.4 8.7-8.3 14.1-8.3 4.8 0 13.2 1.4 13.2 12.4v23.2h-5.6v-4.8h-.3c-1.2 2.5-4.5 5.6-10.5 5.6zm1-5c6.3 0 9.7-4.2 9.7-8.5v-4.9c-.9 1.1-7.1 1.7-9.2 2-4.1.5-7.8 1.9-7.8 5.9 0 3.6 3.1 5.5 7.3 5.5zm25.3 4.2v-35.2h5.7v35.2zm2.8-40.9c-2.1 0-3.9-1.7-3.9-3.8 0-2 1.8-3.7 3.9-3.7 2.2 0 4 1.7 4 3.7 0 2.1-1.8 3.8-4 3.8zm18.5-5.9v46.8h-5.7v-46.8z" class="c"/><path d="M571 590.8q0-1.2.5-2.3.4-1.1 1.3-1.9.8-.9 1.9-1.3 1.1-.5 2.3-.5h308q1.2 0 2.3.5 1.1.4 1.9 1.3.9.8 1.3 1.9.5 1.1.5 2.3v148q0 1.2-.5 2.3-.4 1.1-1.3 2-.8.8-1.9 1.3-1.1.4-2.3.4H577q-1.2 0-2.3-.4-1.1-.5-1.9-1.3-.9-.9-1.3-2-.5-1.1-.5-2.3z" class="e"/><path d="M683.8 690.6h-14.6v-46.8h15.2c13.7 0 21.8 8.8 21.8 23.3 0 14.6-8.1 23.5-22.4 23.5zm-8.6-5.3h8.3c11.4 0 16.9-6.8 16.9-18.2 0-11.3-5.5-18-16.4-18h-8.8zm40.5 5.3v-46.8h7l19 29.9c1.3 2 3.4 5.6 5.6 9.8-.9-13.7-.3-25.8-.4-39.7h5.9v46.8h-7.1c-8.7-14.1-16.2-24.4-24.5-39.7.8 15 .3 24.9.5 39.7zm63.4.8c-10.1 0-16.4-5.2-17-13.1h6.2c.4 5.4 5.3 7.8 10.8 7.8 6.4 0 11.2-3.4 11.2-8.4.2-6.3-9.2-7.4-14.9-9.2-7.5-2.3-12-6-12-12.2 0-7.9 7.1-13.1 16.1-13.1 9.3 0 15.7 5.3 16 12.4h-5.9c-.5-4.6-4.7-7.2-10.3-7.2-6 0-10 3.2-10 7.6 0 4.9 5.5 6.7 8.9 7.6l4.7 1.3c5 1.4 13.2 4.2 13.2 12.9 0 7.7-6.2 13.6-17 13.6z" class="c"/><path d="M531 484.8h60v60h-60z" class="e"/><path d="M579.8 514.6c-1-1.6-1.8-3-1.8-4.9 0-4 3.1-6.5 3.1-6.5.2-.2.3-.4.3-.5q0-.4-.1-.6c-.1-.1-5-6-6.1-7.6-.2-.1-.3-.3-.6-.3-.2 0-.4.1-.6.3-1.9 2-4.1 3.1-6.3 3.1-2.4 0-4.3-1.1-6.1-3.5q-.1-.1-.3-.2h-.6q-.2.1-.3.2c-1.9 2.4-3.7 3.5-6.1 3.5-2.2 0-4.4-1.1-6.3-3.1q-.1-.1-.2-.1 0-.1-.1-.1t-.2-.1h-.1c-.3 0-.4.2-.6.3-1.1 1.6-6 7.5-6.1 7.6q-.2.3-.2.6c.1.2.2.4.3.5.1 0 3.1 2.5 3.1 6.5 0 1.9-.8 3.3-1.7 4.9-1 1.8-2.2 3.8-2.2 6.9 0 5 4.1 8.7 11 10 5.2.9 9.5 4.2 9.5 4.2.1.1.3.2.5.2s.3-.1.4-.2c.1 0 4.4-3.3 9.6-4.2 6.9-1.3 11-5 11-10 0-3.1-1.2-5.1-2.2-6.9zm-9.1 15.4c-4.5.8-8.4 3.3-9.7 4.2-1.3-.9-5.2-3.4-9.7-4.2-9.1-1.7-9.8-7-9.8-8.5 0-2.7 1-4.4 2-6.2 1-1.6 2-3.3 2-5.6 0-3.6-2.1-6.1-3.1-7.2 1-1.3 3.8-4.7 5.1-6.4 2 2 4.4 3 6.8 3 2.6 0 4.7-1 6.7-3.3 2 2.3 4.1 3.3 6.7 3.3 2.4 0 4.8-1 6.8-3 1.3 1.8 4.1 5.1 5.2 6.4-1 1.1-3.1 3.6-3.1 7.2 0 2.3 1 4 1.9 5.6 1 1.7 2 3.5 2 6.2 0 1.6-.7 6.8-9.7 8.5zm2.9-20.3q0-3.6 1.9-6.7c.2-.3.2-.6 0-.9-.4-.5-.8-.9-1.2-1.4-.2-.3-.6-.4-.9-.2-1.9 1-3.8 1.5-5.8 1.5-2.3 0-4.4-.6-6.3-1.9q-.1-.1-.2-.1h-.4q-.1 0-.2.1c-1.9 1.3-4 1.9-6.3 1.9-2 0-3.9-.5-5.8-1.5-.3-.2-.7-.1-.9.2-.4.5-.8.9-1.2 1.4-.2.2-.2.6 0 .9 1.3 2.1 2 4.3 2 6.7 0 3.1-1.3 5.3-2.3 7.1-1 1.8-1.7 2.9-1.7 4.7 0 4 5.6 5.3 7.4 5.6 3.6.7 6.8 2.2 8.8 3.4q.2.1.4.1t.4-.1c2-1.2 5.2-2.7 8.9-3.4 1.7-.3 7.3-1.6 7.3-5.6 0-1.8-.6-2.9-1.6-4.7-1-1.8-2.3-4-2.3-7.1zm-3.7 16c-3.6.6-6.8 2.1-9 3.3-2.1-1.2-5.3-2.7-9-3.3-1-.2-6.1-1.3-6.1-4.2 0-1.4.5-2.3 1.5-3.9 1.1-2 2.5-4.4 2.5-7.9 0-2.4-.7-4.8-1.9-7.1.1-.1.2-.3.4-.5 1.9.9 3.9 1.4 5.9 1.4 2.4 0 4.7-.6 6.7-1.9 2 1.3 4.3 1.9 6.7 1.9q3.1 0 6-1.4c.1.2.2.4.3.5-1.2 2.3-1.9 4.7-1.9 7.1 0 3.5 1.5 5.9 2.6 7.9.9 1.6 1.4 2.5 1.4 3.9 0 2.9-5.1 4-6.1 4.2zm-2.5-10.3q-.8-.8-2.2-.8h-.3l2.9-3.1v-1.1H562v1.1h4.2l-3 3.3v1c.5-.1.9-.1 1.4-.1 1.5 0 2.2.6 2.2 1.7 0 .6-.2 1.1-.6 1.4-.4.3-1 .5-1.7.5s-1.6-.2-2.6-.5v1.1q1.3.6 2.6.6c1.1 0 2.1-.3 2.7-.8.7-.6 1-1.3 1-2.3 0-.8-.3-1.5-.8-2zm-8.3-.3q-.9-.8-2.5-.8-.6 0-1.4.1l.2-2.8h4.1v-1.2h-5.3l-.3 4.3v.9c.9-.1 1.7-.1 2.2-.1q1.3 0 1.8.4c.4.3.6.8.6 1.5q0 .9-.6 1.4c-.4.4-1 .5-1.7.5q-1.1 0-2.7-.5v1.2q1.3.5 2.7.5 1.7 0 2.7-.8c.7-.6 1.1-1.4 1.1-2.3q-.1-1.4-.9-2.3z" class="c"/><path d="M374 664.8h141.5" class="l"/><path d="M374.1 667.8H371v-5.9h3.1z" class="m"/><path d="m561.3 664.8-42.8 13.9v-27.8z" class="n"/><path d="M2505.1 430.8q0-1.2.4-2.3.5-1.1 1.3-1.9.9-.9 2-1.3 1.1-.5 2.3-.5h308q1.1 0 2.2.5 1.1.4 2 1.3.8.8 1.3 1.9.4 1.1.5 2.3v148q-.1 1.2-.5 2.3-.5 1.1-1.3 2-.9.8-2 1.3-1.1.4-2.2.4h-308q-1.2 0-2.3-.4-1.1-.5-2-1.3-.8-.9-1.3-2-.4-1.1-.4-2.3z" class="i"/><path d="m2527.9 530.6 17-46.8h6.9l17.2 46.8h-6.3l-4.6-13.1h-19.3l-4.6 13.1zm12.7-18.3h15.6c-3.2-9.1-4.5-12.2-7.8-23.7-3.4 11.8-4.6 14.4-7.8 23.7zm40.7-2.8v21.1h-5.7v-35.1h5.5v6.5c2.2-5 6-7 10.7-7 7.1 0 11.9 4.4 11.9 13.3v22.3h-5.7v-21.8c0-5.4-3-8.7-7.9-8.7-5 0-8.8 3.4-8.8 9.4zm42.2 21.9c-6.7 0-12-3.9-12-10.8 0-8 7.2-9.5 13.7-10.3 6.3-.9 9-.5 9-3.4 0-4.4-2.5-6.9-7.4-6.9-5 0-7.8 2.7-8.9 5.1l-5.4-1.7c2.7-6.4 8.7-8.4 14.2-8.4 4.7 0 13.1 1.5 13.1 12.4v23.2h-5.5v-4.8h-.4c-1.2 2.5-4.5 5.6-10.4 5.6zm.9-5c6.3 0 9.8-4.2 9.8-8.5V513c-1 1.1-7.1 1.8-9.3 2-4.1.6-7.7 1.9-7.7 5.9 0 3.6 3 5.5 7.2 5.5zm31-42.6v46.8h-5.6v-46.8zm9.7 59.5 1.4-4.9c3.8 1.2 6.5.6 8.3-4.7l1-2.9-13.4-35.3h6.2c3.3 9.8 7.4 19.5 10.2 29.8 2.7-10.4 6.8-20 10.2-29.8h6.2l-15.5 40.3c-2.1 5.6-5.5 8.2-10.5 8.2-2 0-3.5-.4-4.1-.7zm51.5-47.8v4.8h-7.2v21.2c0 3.1 1.1 4.5 4.1 4.5.7 0 2-.2 2.9-.4l1.2 4.8c-1.2.4-2.8.6-4.3.6-6 0-9.6-3.3-9.6-9.1v-21.6h-5.3v-4.8h5.3v-8.4h5.7v8.4zm7.2 35.1v-35.1h5.7v35.1zm2.8-40.9c-2.1 0-3.9-1.6-3.9-3.7s1.8-3.8 3.9-3.8c2.2 0 4 1.7 4 3.8 0 2.1-1.8 3.7-4 3.7zm27.1 41.7c-9.6 0-16-7.3-16-18.1 0-11 6.4-18.3 16-18.3 6.8 0 12.3 3.6 14.2 9.7l-5.4 1.6c-1.1-3.6-4.2-6.2-8.8-6.2-7 0-10.3 6.1-10.3 13.2 0 6.9 3.3 13 10.3 13 4.7 0 7.9-2.7 8.9-6.5l5.4 1.6c-1.8 6.2-7.4 10-14.3 10zm34.4 0c-7.2 0-12.3-3.3-13.5-9.3l5.3-1.3c1.1 3.9 3.9 5.6 8.1 5.6 4.9 0 8.1-2.4 8.1-5.3 0-2.4-1.7-4-5.2-4.9l-5.8-1.3c-6.4-1.5-9.5-4.7-9.5-9.6 0-6.1 5.6-10.3 13.1-10.3 7.2 0 11 3.6 12.6 8.5l-5.1 1.3c-1-2.5-3-5-7.5-5-4.2 0-7.3 2.2-7.3 5.1 0 2.6 1.8 4.1 5.9 5.1l5.3 1.2c6.4 1.5 9.3 4.7 9.3 9.5 0 6.2-5.6 10.7-13.8 10.7z" class="c"/><path d="M2505.1 790.8q0-1.2.4-2.3.5-1.1 1.3-1.9.9-.9 2-1.3 1.1-.5 2.3-.5h308q1.1 0 2.2.5 1.1.4 2 1.3.8.8 1.3 1.9.4 1.1.5 2.3v148q-.1 1.2-.5 2.3-.5 1.1-1.3 2-.9.8-2 1.3-1.1.4-2.2.4h-308q-1.2 0-2.3-.4-1.1-.5-2-1.3-.8-.9-1.3-2-.4-1.1-.4-2.3z" class="i"/><path d="M2590.2 890.6v-46.8h28.5v5.3h-22.5v15.2h21v5.3h-21v15.7h22.8v5.3zm38 0v-35.1h5.5v6.4c1.7-4.7 5.7-7.1 9.8-7.1 4.7 0 7.7 2.9 9 7.2 1.7-4.4 6-7.2 11.1-7.2 6 0 11 4 11 12.1v23.7h-5.7v-23.5c0-5.1-3.3-7.1-7-7.1-4.8 0-7.7 3.2-7.7 7.7v22.9h-5.6v-24.1c0-3.9-3-6.5-6.9-6.5-4.1 0-7.9 2.9-7.9 8.5v22.1zm66.2.8c-6.7 0-12-3.9-12-10.8 0-8 7.2-9.5 13.7-10.3 6.3-.9 9-.5 9-3.4 0-4.4-2.5-6.9-7.4-6.9-5 0-7.8 2.7-8.9 5.1l-5.4-1.7c2.7-6.4 8.7-8.4 14.2-8.4 4.7 0 13.1 1.5 13.1 12.4v23.2h-5.5v-4.8h-.4c-1.2 2.5-4.5 5.6-10.4 5.6zm.9-5c6.3 0 9.8-4.2 9.8-8.5V873c-1 1.1-7.1 1.8-9.3 2-4.1.6-7.7 1.9-7.7 5.9 0 3.6 3 5.5 7.2 5.5zm25.4 4.2v-35.1h5.6v35.1zm2.9-40.9c-2.2 0-3.9-1.6-3.9-3.7s1.7-3.8 3.9-3.8c2.1 0 3.9 1.7 3.9 3.8 0 2.1-1.8 3.7-3.9 3.7zm18.3-5.9v46.8h-5.7v-46.8z" class="c"/><path d="M894 664.8h71q1.2 0 2.3-.4 1.1-.5 1.9-1.3.9-.9 1.3-2 .5-1.1.5-2.3v-81.3q0-1.2.5-2.3.4-1.1 1.3-1.9.8-.9 1.9-1.3 1.1-.5 2.3-.5h18.5" class="l"/><path d="M894.1 667.8H891v-5.9h3.1z" class="m"/><path d="m1041.3 571.5-42.8 13.9v-27.8z" class="n"/><path d="M1491.3 324.8h60v60h-60z" class="k"/><path d="M1539.3 340.2c0-2.6-7.5-6.4-19.2-6.4s-19.1 3.8-19.1 6.4l.1.6 4.1 30.4c.1 3.4 9.2 4.6 14.9 4.6 7.1 0 14.7-1.6 14.8-4.6l1.8-12.7c1 .2 1.8.4 2.4.4.9 0 1.5-.3 1.9-.7.3-.4.4-.8.3-1.2-.1-1.1-1.4-2.2-3.9-3.7l1.8-12.5.1-.6zm-3.9 16.4c-4.6-1.4-11-4.4-13.6-5.6 0-1-.8-1.8-1.8-1.8s-1.8.8-1.8 1.8.8 1.8 1.8 1.8c.5 0 .9-.2 1.2-.4 3 1.4 9.4 4.3 14 5.7l-1.8 12.9v.1c0 1.1-5.1 3.2-13.3 3.2-8.3 0-13.4-2.1-13.4-3.2v-.1l-3.8-27.9c3.3 2.3 10.4 3.5 17.2 3.5 6.8 0 13.9-1.2 17.2-3.5l-1.9 13.5zm-32.9-16.4c.1-1 5.7-4.9 17.6-4.9 11.9 0 17.6 3.9 17.7 4.9v.3c-.7 2.2-8.1 4.6-17.7 4.6s-17-2.4-17.6-4.6v-.3zm34.4 16.8.3-2c2.6 1.6 2.7 2.2 2.7 2.2s-.5.4-3-.2z" class="c"/><path d="M1531.3 430.8q0-1.2.4-2.3.5-1.1 1.3-1.9.9-.9 2-1.3 1.1-.5 2.3-.5h308q1.1 0 2.2.5 1.1.4 2 1.3.8.8 1.3 1.9.4 1.1.5 2.3v148q-.1 1.2-.5 2.3-.5 1.1-1.3 2-.9.8-2 1.3-1.1.4-2.2.4h-308q-1.2 0-2.3-.4-1.1-.5-2-1.3-.8-.9-1.3-2-.4-1.1-.4-2.3z" class="k"/><path d="M1562 530.6v-46.8h28.3v5.3h-22.4v16h20.2v5.3h-20.2v20.2zm35.4 0v-35.1h5.4v5.4h.4c1.3-3.6 5-5.9 9.1-5.9.9 0 2.2 0 2.9.1v5.7c-.3-.1-1.9-.4-3.4-.4-5.1 0-8.8 3.5-8.8 8.2v22zm37.4.8c-9.5 0-16-7.3-16-18.1 0-11 6.5-18.3 16-18.3 9.6 0 16.1 7.3 16.1 18.3 0 10.8-6.5 18.1-16.1 18.1zm0-5.1c7.1 0 10.4-6.1 10.4-13 0-7-3.3-13.2-10.4-13.2-7 0-10.2 6.1-10.2 13.2 0 6.9 3.2 13 10.2 13zm30-16.8v21.1h-5.7v-35.1h5.5v6.5c2.2-5 6-7 10.7-7 7.1 0 11.9 4.4 11.9 13.3v22.3h-5.7v-21.8c0-5.4-3-8.7-7.9-8.7-5 0-8.8 3.4-8.8 9.4zm46.2-14v4.8h-7.3v21.2c0 3.1 1.2 4.5 4.2 4.5.7 0 1.9-.2 2.9-.4l1.1 4.8c-1.1.4-2.7.6-4.2.6-6 0-9.6-3.3-9.6-9.1v-21.6h-5.3v-4.8h5.3v-8.4h5.6v8.4zm21.3 35.9c-10.2 0-16.4-7.3-16.4-18.1s6.2-18.3 15.8-18.3c7.4 0 15.3 4.6 15.3 17.6v2.4h-25.4c.3 7.3 4.5 11.3 10.7 11.3 4.2 0 7.3-1.8 8.6-5.4l5.5 1.5c-1.6 5.3-6.9 9-14.1 9zm-10.7-21.2h19.6c-.5-6-3.8-10.1-9.5-10.1-6.1 0-9.8 4.7-10.1 10.1zm39.1-.7v21.1h-5.6v-35.1h5.4v6.5c2.3-5 6.1-7 10.8-7 7.1 0 11.9 4.4 11.9 13.3v22.3h-5.7v-21.8c0-5.4-3-8.7-7.9-8.7-5.1 0-8.9 3.4-8.9 9.4zm45.5 21.9c-8.7 0-14.8-7.1-14.8-18.3 0-11.1 6.1-18.1 14.9-18.1 6.8 0 9 4.2 10.2 6.1h.4v-17.3h5.6v46.8h-5.4v-5.4h-.6c-1.2 1.9-3.6 6.2-10.3 6.2zm.9-5.1c6.4 0 9.9-5.4 9.9-13.2 0-7.8-3.4-13-9.9-13-6.7 0-10 5.7-10 13 0 7.4 3.4 13.2 10 13.2z" class="c"/><path d="M1374 571.5h71.1q1.2 0 2.3-.5 1.1-.4 2-1.3.8-.8 1.3-1.9.4-1.1.4-2.3v-54.7q0-1.2.5-2.3.4-1.1 1.3-1.9.8-.9 1.9-1.3 1.1-.5 2.3-.5h18.6" class="l"/><path d="M1374.1 574.5h-3.1v-6h3.1z" class="m"/><path d="m1521.5 504.8-42.8 13.9v-27.8z" class="n"/><path d="M1854.3 504.8h79.2q1.2 0 2.3-.4 1.1-.5 1.9-1.3.9-.9 1.3-2 .5-1.1.5-2.3v-228q0-1.2-.5-2.3-.4-1.1-1.3-1.9-.8-.9-1.9-1.3-1.1-.5-2.3-.5H254.7q-1.2 0-2.3.5-1.1.4-1.9 1.3-.9.8-1.3 1.9-.5 1.1-.5 2.3v258.5" class="l"/><path d="M1854.3 507.8h-3v-5.9h3z" class="m"/><path d="m248.7 575.1-13.9-42.8h27.8z" class="n"/><path d="M1856.5 851.5h78q1.2 0 2.3-.5 1.1-.4 1.9-1.3.9-.8 1.3-1.9.5-1.1.5-2.3v-268q0-1.2.5-2.3.4-1.1 1.3-1.9.8-.9 1.9-1.3 1.1-.5 2.3-.5h25.5" class="l"/><path d="M1856.6 854.5h-3.1v-6h3.1z" class="m"/><path d="m2017.8 571.5-42.8 13.9v-27.8z" class="n"/><path d="M1856.5 851.5h78q1.2 0 2.3-.5 1.1-.4 1.9-1.3.9-.8 1.3-1.9.5-1.1.5-2.3v-73.3q0-1.1.5-2.2.4-1.1 1.3-2 .8-.8 1.9-1.3 1.1-.4 2.3-.5h25.5" class="l"/><path d="M1856.6 854.5h-3.1v-6h3.1z" class="m"/><path d="m2017.8 766.3-42.8 13.9v-27.8z" class="n"/><path d="M2350.5 571.5h70.1q1.2 0 2.3-.5 1.1-.4 2-1.3.8-.8 1.3-1.9.4-1.1.4-2.3v-48q0-1.2.5-2.3.4-1.1 1.3-1.9.8-.9 1.9-1.3 1.1-.5 2.3-.5h17.6" class="l"/><path d="M2350.6 574.5h-3.1v-6h3.1z" class="m"/><path d="m2496.1 511.5-42.8 13.9v-27.8z" class="n"/><path d="M2350.5 771.5h69.8q1.2 0 2.3.5 1.1.4 1.9 1.3.9.8 1.3 1.9.5 1.1.5 2.3v81.3q0 1.2.4 2.3.5 1.1 1.3 2 .9.8 2 1.3 1.1.4 2.3.4h17.2" class="l"/><path d="M2350.6 774.5h-3.1v-6h3.1z" class="m"/><path d="m2495.3 864.8-42.8 13.9v-27.8z" class="n"/><path d="M2828.1 864.8h115.2q1.1 0 2.2-.4 1.1-.5 2-1.3.8-.9 1.3-2 .4-1.1.5-2.3V197.5q-.1-1.2-.5-2.3-.5-1.1-1.3-1.9-.9-.9-2-1.3-1.1-.5-2.2-.5H179.9q-1.2 0-2.3.5-1.1.4-1.9 1.3-.9.8-1.3 1.9-.5 1.1-.5 2.3v331.8" class="l"/><path d="M2828.1 867.8h-3.1v-5.9h3.1z" class="m"/><path d="M173.9 575.1 160 532.3h27.8z" class="n"/><path d="M2828.1 504.8h75.2q1.1 0 2.2-.4 1.1-.5 2-1.3.8-.9 1.3-2 .4-1.1.5-2.3V237.5q-.1-1.2-.5-2.3-.5-1.1-1.3-1.9-.9-.9-2-1.3-1.1-.5-2.2-.5H217q-1.2 0-2.3.5-1.1.4-1.9 1.3-.9.8-1.3 1.9-.5 1.1-.5 2.3v291.8" class="l"/><path d="M2828.1 507.8h-3.1v-5.9h3.1z" class="m"/><path d="m211 575.1-13.9-42.8h27.8z" class="n"/><path d="M1051.1 697.5q0-1.2.5-2.3.4-1.1 1.3-1.9.8-.9 1.9-1.3 1.1-.5 2.3-.5h308q1.2 0 2.3.5 1.1.4 2 1.3.8.8 1.3 1.9.4 1.1.4 2.3v148q0 1.2-.4 2.3-.5 1.1-1.3 1.9-.9.9-2 1.3-1.1.5-2.3.5h-308q-1.2 0-2.3-.5-1.1-.4-1.9-1.3-.9-.8-1.3-1.9-.5-1.1-.5-2.3z" class="e"/><path d="m1162 797.3 17-46.8h7l17.2 46.8h-6.3l-4.7-13.1h-19.3l-4.5 13.1zm12.7-18.3h15.6c-3.2-9.1-4.6-12.3-7.9-23.8-3.4 11.9-4.5 14.5-7.7 23.8zm35.8 18.3v-46.8h16c10.9 0 15.9 6.5 15.9 14.8 0 8.4-5 15-15.9 15h-10.1v17zm6-22.2h9.8c7.4 0 10.3-4.2 10.3-9.8 0-5.5-2.9-9.6-10.4-9.6h-9.7zm41-24.6v46.8h-6v-46.8z" class="c"/><path d="M894 664.8h71.1q1.2 0 2.3.5 1.1.4 1.9 1.3.8.8 1.3 1.9.5 1.1.5 2.3v94.7q0 1.2.4 2.3.5 1.1 1.3 1.9.9.9 2 1.3 1.1.5 2.3.5h18.5" class="l"/><path d="M894.1 667.8H891v-5.9h3.1z" class="m"/><path d="m1041.4 771.5-42.8 13.9v-27.8z" class="n"/><path d="M1374.1 771.5h72.2q1.2 0 2.3.5 1.1.4 2 1.3.8.8 1.3 1.9.4 1.1.4 2.3v68q0 1.2.5 2.3.4 1.1 1.3 1.9.8.9 1.9 1.3 1.1.5 2.3.5h19.7" class="l"/><path d="M1374.2 774.5h-3.1v-6h3.1z" class="m"/><path d="m1523.8 851.5-42.8 13.9v-27.8z" class="n"/></svg>
