<svg xmlns="http://www.w3.org/2000/svg" width="2063" height="1483" version="1.2"><style>svg{background-color:#fff}.c{fill:#fff}.e{fill:#de4c36}.f{fill:#fff;stroke:#8c4fff;stroke-width:3}.g{fill:#8c4fff}.i{fill:#7aa116}.k{fill:#ed7100}.l,.m,.n{stroke:#000}.l{fill:none;stroke-width:6}.m{stroke-width:.4}.n{stroke-width:6}</style><path d="M971 57.5q0-1.2.5-2.3.4-1.1 1.3-1.9.8-.9 1.9-1.3 1.1-.5 2.3-.5h1028q1.2 0 2.3.5 1.1.4 1.9 1.3.9.8 1.3 1.9.5 1.1.5 2.3v1368q0 1.2-.5 2.3-.4 1.1-1.3 1.9-.8.9-1.9 1.3-1.1.5-2.3.5H977q-1.2 0-2.3-.5-1.1-.4-1.9-1.3-.9-.8-1.3-1.9-.5-1.1-.5-2.3z" style="fill:#f7f4e4;stroke:#242f3e;stroke-width:3"/><path d="M971 51.5h56v56h-56z" style="fill:#242f3e"/><path d="M989.2 77.4c0 .4.1.8.2 1.3.1.4.3.7.5 1.1v.3c0 .2-.1.4-.2.5l-1 .6q-.2.1-.4.1c-.1 0-.3 0-.4-.2q-.3-.3-.5-.7c-.2-.2-.3-.5-.5-.8-1.1 1.3-2.6 2.1-4.4 2q-1.7.1-2.9-1-1.2-1.3-1.1-2.9c-.1-1.2.4-2.3 1.3-3.1 1.1-.8 2.3-1.2 3.7-1.1.5 0 1 0 1.6.1.5.1 1.1.2 1.7.3v-1.1q.1-1.3-.7-2.4-1.1-.8-2.5-.7c-.5 0-1 .1-1.6.2-.5.1-1 .3-1.6.5l-.5.2h-.2c-.2 0-.3-.1-.3-.4v-.8q0-.2.1-.5.2-.2.4-.3c.6-.3 1.2-.5 1.9-.7.8-.2 1.5-.3 2.3-.3q2.2-.2 3.9 1.2 1.4 1.6 1.2 3.7zm-6.1 2.3c.6 0 1.1-.1 1.6-.3.6-.2 1.1-.5 1.5-1q.3-.3.5-.9c.1-.4.1-.8.1-1.3v-.7c-.5-.1-.9-.1-1.4-.2H984q-1.2-.1-2.2.6-.8.7-.8 1.7c0 .6.2 1.2.6 1.6q.6.6 1.5.5zm12 1.6h-.3q-.1 0-.1-.1-.1 0-.2-.1c-.1-.1-.2-.3-.3-.6L990.7 69l-.1-.6q0-.3.4-.3h1.4c.2 0 .4 0 .6.1.2.2.3.4.3.6l2.5 10 2.4-10q0-.3.3-.6.2-.1.5-.1h1.2c.3 0 .4 0 .6.1.2.2.3.4.3.6l2.4 10 2.5-10q.1-.3.4-.6c.1-.1.3-.2.5-.1h1.4c.2 0 .4.1.4.3v.3s0 .2-.1.3l-3.6 11.5q-.1.4-.3.6-.3.2-.6.2h-1.6l-.1-.1q-.1 0-.2-.1-.2-.2-.3-.6l-2.3-9.6-2.3 9.6q0 .4-.3.6-.3.2-.6.2zm19.2.3c-.8 0-1.5 0-2.3-.2q-.2 0-.4-.1t-.4-.1q-.3-.1-.5-.2l-.4-.2c-.2-.1-.4-.2-.4-.4l-.1-.1v-.2q0-.1-.1-.2v-.7q.1-.5.4-.5h.3l.3.2c.6.2 1.1.4 1.6.5.6.1 1.2.2 1.8.2.8 0 1.5-.1 2.2-.5.5-.3.8-.8.8-1.4 0-.4-.2-.8-.4-1-.5-.4-1-.7-1.5-.8l-2.2-.7q-.4-.1-.7-.2l-.6-.4-.6-.4q-.3-.2-.5-.5c-.5-.7-.7-1.4-.7-2.2 0-.6.1-1.1.4-1.6.3-.5.6-.9 1-1.2.5-.4 1-.6 1.6-.8.7-.2 1.2-.3 1.9-.3h1l1 .2.8.2.7.3c.1.1.3.2.4.4q.1 0 .1.1v.2q.1.1 0 .2v.7q.1.4-.3.4c-.2 0-.4 0-.6-.1-.9-.5-1.8-.6-2.9-.6-.7-.1-1.3.1-1.9.4-.5.3-.8.8-.7 1.3 0 .4.1.8.4 1.1.5.4 1 .6 1.6.8l2.1.7c1 .2 1.7.7 2.3 1.4.5.6.7 1.3.7 2.1 0 .6-.1 1.2-.4 1.7-.3.6-.6 1-1.1 1.4-.5.4-1 .6-1.6.8-.7.2-1.4.3-2.1.3zm2.7 7.4c-5.6 3.8-11.3 5.6-18.1 5.5-8.6.1-15.8-2.7-22.2-8.4-.5-.4 0-1 .5-.7 7.1 4.1 14 5.9 22.2 5.9 6.1 0 11.3-1.1 16.9-3.5.9-.3 1.6.6.7 1.2z" class="c"/><path d="M1019.2 86.7c-.7-.8-4.2-.4-5.8-.2-.5 0-.5-.4-.1-.7 2.8-1.9 7.4-1.4 8-.7.6.7-.1 5.3-2.8 7.5-.4.3-.8.1-.6-.3.6-1.5 1.9-4.8 1.3-5.6z" class="c"/><path d="M491 497.5q0-1.2.5-2.3.4-1.1 1.3-1.9.8-.9 1.9-1.3 1.1-.5 2.3-.5h388q1.2 0 2.3.5 1.1.4 1.9 1.3.9.8 1.3 1.9.5 1.1.5 2.3v488q0 1.2-.5 2.3-.4 1.1-1.3 1.9-.8.9-1.9 1.3-1.1.5-2.3.5H497q-1.2 0-2.3-.5-1.1-.4-1.9-1.3-.9-.8-1.3-1.9-.5-1.1-.5-2.3z" style="fill:#f7f4e4;stroke:#de4c36;stroke-width:3"/><path d="M577.1 537.6c-5.4 0-9.1-3.8-9.1-9.9 0-6.3 3.9-10 9-10 4.4 0 7.8 2.7 8.3 6.5h-4c-.6-1.9-2-3-4.2-3-3 0-5.1 2.3-5.1 6.4 0 4.1 2 6.5 5.2 6.5 2.7 0 4.4-1.6 4.4-4.1h-4.2v-3h8.1v2.4c0 5.1-3.5 8.2-8.4 8.2zm11.4-.3v-14.5h3.9v14.5zm1.9-16.4c-1.2 0-2.1-.9-2.1-2s.9-2 2.1-2c1.2 0 2.2.9 2.2 2s-1 2-2.2 2zm12.5 1.9v3h-2.7v7.3c0 .9.4 1.3 1.3 1.3.3 0 1-.1 1.3-.1l.5 2.9c-.9.3-1.7.3-2.5.3-2.9 0-4.5-1.4-4.5-4.1v-7.6h-2v-3h2v-3.5h3.9v3.5z" class="e"/><path d="M1531 237.5q0-1.2.5-2.3.4-1.1 1.3-1.9.8-.9 1.9-1.3 1.1-.5 2.3-.5h388q1.2 0 2.3.5 1.1.4 1.9 1.3.9.8 1.3 1.9.5 1.1.5 2.3v488q0 1.2-.5 2.3-.4 1.1-1.3 1.9-.8.9-1.9 1.3-1.1.5-2.3.5h-388q-1.2 0-2.3-.5-1.1-.4-1.9-1.3-.9-.8-1.3-1.9-.5-1.1-.5-2.3z" class="f"/><path d="M1617 277.6c-5.2 0-9-3.7-9-10s3.9-9.9 9-9.9c4.4 0 7.8 2.5 8.4 6.9h-4.1c-.3-2.1-2-3.4-4.2-3.4-3 0-5.1 2.3-5.1 6.4 0 4.3 2.1 6.5 5.1 6.5 2.2 0 3.9-1.3 4.3-3.4h4c-.5 3.6-3.5 6.9-8.4 6.9zm15.1-19.7v19.4h-3.9v-19.4zm9.8 19.7c-4.4 0-7.1-3-7.1-7.5s2.7-7.5 7.1-7.5c4.4 0 7.1 3 7.1 7.5s-2.7 7.5-7.1 7.5zm0-3.1c2.1 0 3.2-1.9 3.2-4.4 0-2.6-1.1-4.4-3.2-4.4s-3.1 1.8-3.1 4.4c0 2.5 1 4.4 3.1 4.4zm14.9 3c-3.1 0-5-2.1-5-5.5v-9.2h3.9v8.6c0 1.8 1 2.8 2.6 2.8s2.8-1.1 2.8-3v-8.4h3.9v14.5h-3.7v-3c-.8 2.1-2.3 3.2-4.5 3.2zm16.9.1c-3.4 0-6-2.7-6-7.5 0-5 2.7-7.5 6-7.5 2.4 0 3.6 1.5 4.1 2.6h.1v-7.3h3.9v19.4h-3.8V275h-.2c-.5 1.2-1.7 2.6-4.1 2.6zm1.2-3.2c2 0 3.1-1.7 3.1-4.3 0-2.7-1.1-4.4-3.1-4.4-2.1 0-3.1 1.8-3.1 4.4 0 2.5 1 4.3 3.1 4.3zm10.4 2.9v-19.4h12.7v3.3h-8.8v5.4h8v3.3h-8v7.4zm15 0v-14.5h3.8v2.5h.1c.7-2.2 2.4-3.1 4.8-2.6v3.5c-.3-.1-1.1-.2-1.7-.2-1.8 0-3.1 1.2-3.1 3.1v8.2zm16.7.3c-4.4 0-7.1-3-7.1-7.5s2.7-7.5 7.1-7.5c4.4 0 7.1 3 7.1 7.5s-2.7 7.5-7.1 7.5zm0-3.1c2.1 0 3.2-1.9 3.2-4.4 0-2.6-1.1-4.4-3.2-4.4s-3.1 1.8-3.1 4.4c0 2.5 1 4.4 3.1 4.4zm13.8-5.6v8.4h-3.9v-14.5h3.6l.1 3c.8-2 2.3-3.2 4.5-3.2 3 0 5 2.1 5 5.5v9.2h-3.9v-8.5c0-1.9-1-2.9-2.6-2.9-1.7 0-2.8 1.1-2.8 3zm19.9-6.1v3h-2.7v7.3c0 .9.3 1.3 1.3 1.3.3 0 .9-.1 1.2-.1l.6 2.9c-.9.3-1.8.3-2.5.3-3 0-4.5-1.4-4.5-4.1v-7.6h-2v-3h2v-3.5h3.9v3.5z" class="g"/><path d="M1051 157.5q0-1.2.5-2.3.4-1.1 1.3-1.9.8-.9 1.9-1.3 1.1-.5 2.3-.5h388q1.2 0 2.3.5 1.1.4 1.9 1.3.9.8 1.3 1.9.5 1.1.5 2.3v288q0 1.2-.5 2.3-.4 1.1-1.3 1.9-.8.9-1.9 1.3-1.1.5-2.3.5h-388q-1.2 0-2.3-.5-1.1-.4-1.9-1.3-.9-.8-1.3-1.9-.5-1.1-.5-2.3z" style="fill:#fff;stroke:#7aa116;stroke-width:3"/><path d="M1135.6 197.6c-4.6 0-7.6-2.2-7.7-6.3h3.9c.1 2 1.7 3 3.8 3 2.1 0 3.5-1 3.5-2.5 0-1.3-1.2-2-3.3-2.5l-2.1-.5c-3.3-.8-5.3-2.5-5.3-5.3 0-3.5 3.1-5.8 7.3-5.8 4.3 0 7.1 2.4 7.2 5.8h-3.9c-.1-1.6-1.3-2.5-3.3-2.5-2.1 0-3.2 1-3.2 2.3-.1 2 2.9 2.4 4.8 2.8 3.3.8 5.8 2.5 5.8 5.7 0 3.5-2.7 5.8-7.5 5.8zm17.2 0c-4.2 0-7.2-2.3-7.3-5.7h4c.1 1.4 1.5 2.4 3.3 2.4 1.9 0 3.3-1.1 3.3-2.7s-1.4-2.7-3.6-2.7h-1.8V186h1.8c1.9 0 3.2-1.1 3.2-2.6s-1.2-2.6-2.8-2.6c-1.7 0-3.1 1-3.2 2.5h-3.8c.1-3.3 3-5.6 7-5.6s6.6 2.4 6.6 5.4c0 2.2-1.5 3.7-3.6 4.1v.2c2.8.4 4.3 2.1 4.3 4.5 0 3.3-3.1 5.7-7.4 5.7z" class="i"/><path d="M1051 517.5q0-1.2.5-2.3.4-1.1 1.3-1.9.8-.9 1.9-1.3 1.1-.5 2.3-.5h388q1.2 0 2.3.5 1.1.4 1.9 1.3.9.8 1.3 1.9.5 1.1.5 2.3v288q0 1.2-.5 2.3-.4 1.1-1.3 1.9-.8.9-1.9 1.3-1.1.5-2.3.5h-388q-1.2 0-2.3-.5-1.1-.4-1.9-1.3-.9-.8-1.3-1.9-.5-1.1-.5-2.3z" class="f"/><path d="m1127.4 557.3 6.6-19.4h5.3l6.8 19.4h-4.5l-1.5-4.5h-6.8l-1.5 4.5zm6.8-7.6h4.9c-1-2.8-1.6-5.2-2.5-8.7-.9 3.5-1.4 5.9-2.4 8.7zm14.2 7.6v-19.4h7.6c4.4 0 7 2.8 7 6.6s-2.6 6.5-7.1 6.5h-3.5v6.3zm4-9.5h2.9c2.4 0 3.5-1.4 3.5-3.3 0-2-1.1-3.3-3.6-3.3h-2.8zm17.3-9.9v19.4h-4v-19.4zm18.4 19.7c-5.4 0-9.1-3.8-9.1-9.9 0-6.3 3.9-10 9-10 4.4 0 7.8 2.7 8.3 6.5h-4c-.6-1.9-2-3-4.2-3-3 0-5.1 2.3-5.1 6.4 0 4.1 2 6.5 5.1 6.5 2.8 0 4.5-1.6 4.5-4.1h-4.2v-3h8.1v2.4c0 5.1-3.5 8.2-8.4 8.2zm15.4 0c-2.8 0-4.8-1.5-4.8-4.3 0-3.3 2.6-4.2 5.5-4.5 2.5-.3 3.5-.3 3.5-1.4 0-1.2-.8-1.9-2.3-1.9-1.5 0-2.4.7-2.7 1.7l-3.6-.6c.7-2.6 3.1-4 6.3-4 3.2 0 6.2 1.4 6.2 4.9v9.8h-3.7v-2h-.1c-.7 1.4-2.1 2.3-4.3 2.3zm1.1-2.7c1.8 0 3.1-1.2 3.1-2.8v-1.6c-.5.4-2 .6-2.9.7-1.4.2-2.4.8-2.4 2 0 1.1.9 1.7 2.2 1.7zm17.6-12.1v3h-2.8v7.3c0 .9.4 1.3 1.4 1.3.3 0 .9-.1 1.2-.1l.6 2.9c-.9.3-1.8.3-2.6.3-2.9 0-4.5-1.4-4.5-4.1v-7.6h-2v-3h2v-3.5h3.9v3.5zm8.8 14.8c-4.4 0-7.2-2.9-7.2-7.5 0-4.5 2.8-7.5 7-7.5 3.8 0 6.9 2.4 6.9 7.4v1.1h-10c.1 2.4 1.4 3.6 3.4 3.6 1.3 0 2.4-.6 2.8-1.7l3.5.6c-.7 2.4-3 4-6.4 4zm-3.3-9h6.2c-.2-1.9-1.2-3.1-3-3.1-1.9 0-3 1.3-3.2 3.1zm15.3 8.7-4.3-14.5h4.1c.9 3.8 1.6 6.8 2.4 11 .9-4.1 1.7-7.2 2.6-11h3.6c1 3.8 1.7 6.8 2.6 11 .7-4.2 1.5-7.2 2.4-11h4.2l-4.4 14.5h-3.9c-1-3.4-2-6.3-2.7-10-.7 3.7-1.7 6.6-2.6 10zm23.6.3c-2.7 0-4.8-1.5-4.8-4.3 0-3.3 2.6-4.2 5.5-4.5 2.5-.3 3.5-.3 3.5-1.4 0-1.2-.8-1.9-2.3-1.9-1.5 0-2.4.7-2.7 1.7l-3.6-.6c.7-2.6 3.1-4 6.3-4 3.2 0 6.2 1.4 6.2 4.9v9.8h-3.7v-2h-.1c-.7 1.4-2.1 2.3-4.3 2.3zm1.1-2.7c1.9 0 3.1-1.2 3.1-2.8v-1.6c-.5.4-2 .6-2.9.7-1.4.2-2.4.8-2.4 2 0 1.1.9 1.7 2.2 1.7zm9.8 7.6.9-3c1.6.6 3.2.3 3.3-1.3l.1-.8-5.5-14.6h4.2c1.1 3.7 2.6 7.3 3.4 11.3.9-4 2.4-7.6 3.6-11.3h4.1l-6.2 16.3c-.9 2.3-2.4 3.8-5.4 3.8-1 0-2-.2-2.5-.4z" class="g"/><path d="M1274 877.5q0-1.2.5-2.3.4-1.1 1.3-1.9.8-.9 1.9-1.3 1.1-.5 2.3-.5h388q1.2 0 2.3.5 1.1.4 1.9 1.3.9.8 1.3 1.9.5 1.1.5 2.3v488q0 1.2-.5 2.3-.4 1.1-1.3 1.9-.8.9-1.9 1.3-1.1.5-2.3.5h-388q-1.2 0-2.3-.5-1.1-.4-1.9-1.3-.9-.8-1.3-1.9-.5-1.1-.5-2.3z" style="fill:#fff;stroke:#ed7100;stroke-width:3"/><path d="M1351.5 917.3v-19.4h4V914h8.4v3.3zm19.1.3c-2.8 0-4.9-1.5-4.9-4.3 0-3.3 2.7-4.2 5.5-4.5 2.6-.3 3.6-.3 3.6-1.4 0-1.2-.9-1.9-2.3-1.9-1.5 0-2.4.7-2.8 1.7l-3.5-.6c.7-2.6 3-4 6.3-4 3.1 0 6.2 1.4 6.2 4.9v9.8h-3.7v-2h-.2c-.7 1.4-2.1 2.3-4.2 2.3zm1.1-2.7c1.8 0 3.1-1.2 3.1-2.8v-1.6c-.5.4-2 .6-2.9.7-1.4.2-2.4.8-2.4 2 0 1.1.9 1.7 2.2 1.7zm10.3 2.4v-14.5h3.6l.2 2.8c.8-2.1 2.4-3 4.1-3 1.9 0 3.1 1 3.8 3.2.8-2.2 2.7-3.2 4.7-3.2 2.6 0 4.6 1.8 4.6 4.9v9.8h-3.9v-9c0-1.7-1-2.5-2.3-2.5-1.5 0-2.4 1.1-2.4 2.6v8.9h-3.8v-9.1c0-1.5-.9-2.4-2.3-2.4-1.3 0-2.4 1-2.4 2.7v8.8zm32.5.3c-2.4 0-3.6-1.4-4.1-2.6h-.2v2.3h-3.9v-19.4h3.9v7.3h.2c.5-1.1 1.6-2.6 4.1-2.6 3.2 0 5.9 2.5 5.9 7.5 0 4.8-2.5 7.5-5.9 7.5zm-1.2-3.2c2 0 3.1-1.8 3.1-4.3 0-2.6-1.1-4.4-3.1-4.4s-3.1 1.7-3.1 4.4c0 2.6 1.1 4.3 3.1 4.3zm15.2 3.2c-3.4 0-6-2.7-6-7.5 0-5 2.7-7.5 6-7.5 2.4 0 3.6 1.5 4.1 2.6h.1v-7.3h3.9v19.4h-3.8V915h-.2c-.5 1.2-1.8 2.6-4.1 2.6zm1.2-3.2c2 0 3.1-1.7 3.1-4.3 0-2.7-1.1-4.4-3.1-4.4-2.1 0-3.1 1.8-3.1 4.4 0 2.5 1 4.3 3.1 4.3zm14.3 3.2c-2.7 0-4.8-1.5-4.8-4.3 0-3.3 2.6-4.2 5.5-4.5 2.5-.3 3.5-.3 3.5-1.4 0-1.2-.8-1.9-2.3-1.9-1.5 0-2.4.7-2.7 1.7l-3.6-.6c.7-2.6 3.1-4 6.3-4 3.2 0 6.2 1.4 6.2 4.9v9.8h-3.7v-2h-.1c-.7 1.4-2.1 2.3-4.3 2.3zm1.1-2.7c1.9 0 3.1-1.2 3.1-2.8v-1.6c-.5.4-2 .6-2.9.7-1.4.2-2.4.8-2.4 2 0 1.1.9 1.7 2.2 1.7z" class="k"/><path d="M1531 231.5h60v60h-60z" class="g"/><path d="M1582 261.5c0 6.5-3 12.6-8.2 16.6q-1.9 1.5-4.1 2.5-1 .5-2 .8-3.2 1.1-6.7 1.1c-3.5 0-6.9-.8-9.9-2.5-6.9-3.6-11.1-10.7-11.1-18.5v-1.3c.5-8.7 6.5-16.3 15-18.8q2.9-.9 6-.9c3.6 0 7.1.9 10.2 2.7 6.7 3.7 10.8 10.7 10.8 18.3zm-1.5 0c0-7-3.8-13.4-9.8-16.9-1 .3-2.1.6-3.4 1l-.5-1.4c.7-.3 1.3-.4 1.9-.6-2.4-1-5.1-1.6-7.7-1.6q-1.9 0-3.8.4c.9.5 1.7 1 2.5 1.6l-1 1.2c-1-.8-2.1-1.5-3.6-2.3-7.4 2.3-12.7 8.8-13.5 16.5 1.6-.4 3-.5 4.7-.6v1.5c-1.7.1-3.2.2-4.8.6v.6c0 6.5 3.2 12.5 8.5 16.1-1-2.8-1.5-5.5-1.5-8 0-1.5.3-2.7.6-4 0-.3.1-.6.2-.9l1.4.3c0 .3-.1.6-.1.9-.3 1.3-.5 2.4-.5 3.7 0 2.9.6 5.9 1.9 9.2 2.8 1.5 5.8 2.2 9 2.2 2 0 4.1-.4 6-1 .7-1.4 1.3-2.9 1.8-4.5l1.4.5c-.3 1.1-.7 2.2-1.2 3.3q1.8-.9 3.5-2.1-.4-.9-.9-1.8l1.4-.7c.2.5.5 1.1.7 1.6 4.3-3.7 6.8-9.1 6.8-14.8zm-25.2-1.7c0 2-1.7 3.7-3.8 3.7-2 0-3.7-1.7-3.7-3.7 0-2.1 1.7-3.8 3.8-3.8 2 0 3.7 1.7 3.7 3.8zm-1.5 0c0-1.3-1-2.3-2.2-2.3q-.5 0-.9.2t-.7.5q-.4.3-.5.7-.2.4-.2.9c0 1.2 1 2.2 2.3 2.2 1.2 0 2.2-1 2.2-2.2zm5.5-11.8c0-2.1 1.7-3.7 3.8-3.7 2 0 3.7 1.6 3.7 3.7s-1.7 3.8-3.7 3.8c-2.1 0-3.8-1.7-3.8-3.8zm1.5 0c0 1.3 1 2.3 2.3 2.3 1.2 0 2.2-1 2.2-2.3 0-1.2-1-2.2-2.2-2.2-1.3 0-2.3 1-2.3 2.2zm13.1 22.6c0 2.1-1.7 3.8-3.8 3.8-2.1 0-3.8-1.7-3.8-3.8 0-2.1 1.7-3.8 3.8-3.8 2.1 0 3.8 1.7 3.8 3.8zm-1.5 0c0-1.2-1-2.2-2.3-2.2-1.2 0-2.2 1-2.2 2.2 0 1.2 1 2.3 2.2 2.3 1.2 0 2.3-1 2.3-2.3zm-13.4-20c-1.6 1.4-2.8 2.9-4.2 5.1l-1.3-.8c1.5-2.4 2.9-4 4.5-5.4l1 1.1zm-2.3 9.7c3.7 1.3 6.9 3.3 10 6.3l-1 1.1c-3-2.9-6-4.8-9.5-5.9l.5-1.5zm10.1-8.8c2.8 4.3 4.3 9 4.7 14l-1.5.1c-.3-4.7-1.8-9.2-4.5-13.2l1.3-.9z" class="c"/><path d="M1051 151.5h60v60h-60z" class="i"/><path d="M1099 166.9c0-2.6-7.5-6.4-19.1-6.4-11.7 0-19.2 3.8-19.2 6.4l.1.5 4.2 30.4c0 3.4 9.1 4.7 14.9 4.7 7.1 0 14.6-1.6 14.7-4.7l1.8-12.7q1.5.4 2.5.4 1.3 0 1.8-.6c.4-.4.4-.8.4-1.3-.2-1-1.4-2.1-4-3.6l1.8-12.5.1-.6zm-3.8 16.4c-4.6-1.4-11-4.4-13.6-5.6 0-1-.8-1.8-1.8-1.8s-1.8.8-1.8 1.8.8 1.8 1.8 1.8c.4 0 .8-.2 1.1-.4 3.1 1.4 9.4 4.3 14.1 5.7l-1.9 12.9v.1c0 1.1-5 3.2-13.2 3.2-8.3 0-13.4-2.1-13.4-3.2v-.1l-3.9-27.9c3.3 2.3 10.5 3.5 17.3 3.5 6.8 0 13.9-1.2 17.2-3.5l-1.9 13.5zm-33-16.4c.1-1 5.8-4.9 17.7-4.9 11.9 0 17.6 3.9 17.6 4.9v.3c-.6 2.2-8 4.6-17.6 4.6-9.7 0-17-2.4-17.7-4.6v-.3zm34.5 16.8.2-2.1c2.7 1.6 2.7 2.3 2.7 2.3s-.4.4-2.9-.2z" class="c"/><path d="M1091 257.5q0-1.2.5-2.3.4-1.1 1.3-1.9.8-.9 1.9-1.3 1.1-.5 2.3-.5h308q1.2 0 2.3.5 1.1.4 1.9 1.3.9.8 1.3 1.9.5 1.1.5 2.3v148q0 1.2-.5 2.3-.4 1.1-1.3 1.9-.8.9-1.9 1.3-1.1.5-2.3.5h-308q-1.2 0-2.3-.5-1.1-.4-1.9-1.3-.9-.8-1.3-1.9-.5-1.1-.5-2.3z" class="i"/><path d="M1121.7 357.3v-46.8h28.3v5.2h-22.3v16.1h20.2v5.2h-20.2v20.3zm35.4 0v-35.2h5.5v5.4h.4c1.3-3.5 4.9-5.9 9.1-5.9.8 0 2.2.1 2.8.1v5.7c-.3 0-1.8-.3-3.3-.3-5.1 0-8.8 3.4-8.8 8.2v22zm37.5.7c-9.6 0-16-7.2-16-18.1 0-11 6.4-18.2 16-18.2s16 7.2 16 18.2c0 10.9-6.4 18.1-16 18.1zm0-5c7.1 0 10.3-6.2 10.3-13.1 0-7-3.2-13.1-10.3-13.1-7 0-10.3 6.1-10.3 13.1 0 6.9 3.3 13.1 10.3 13.1zm29.9-16.8v21.1h-5.6v-35.2h5.4v6.5c2.3-4.9 6.1-6.9 10.8-6.9 7.1 0 11.9 4.4 11.9 13.3v22.3h-5.7v-21.9c0-5.4-3-8.6-7.9-8.6-5.1 0-8.9 3.4-8.9 9.4zm46.2-14.1v4.9h-7.2v21.2c0 3.1 1.1 4.5 4.1 4.5.7 0 2-.2 2.9-.4l1.2 4.8c-1.2.4-2.8.6-4.2.6-6.1 0-9.7-3.4-9.7-9.1V327h-5.3v-4.9h5.3v-8.3h5.7v8.3zm21.4 35.9c-10.2 0-16.5-7.2-16.5-18s6.2-18.3 15.8-18.3c7.5 0 15.3 4.6 15.3 17.6v2.3h-25.4c.3 7.4 4.6 11.4 10.8 11.4 4.1 0 7.3-1.8 8.6-5.4l5.4 1.5c-1.6 5.3-6.8 8.9-14 8.9zm-10.7-21.2h19.6c-.6-5.9-3.8-10.1-9.6-10.1-6 0-9.7 4.8-10 10.1zm39.1-.6v21.1h-5.7v-35.2h5.4l.1 6.5c2.2-4.9 6-6.9 10.7-6.9 7.1 0 11.9 4.4 11.9 13.3v22.3h-5.7v-21.9c0-5.4-3-8.6-7.9-8.6-5 0-8.8 3.4-8.8 9.4zM1366 358c-8.8 0-14.9-7-14.9-18.2 0-11.1 6.2-18.1 14.9-18.1 6.9 0 9 4.2 10.2 6.1h.4v-17.3h5.7v46.8h-5.5v-5.5h-.6c-1.2 2-3.5 6.2-10.2 6.2zm.8-5c6.4 0 9.9-5.4 9.9-13.3 0-7.7-3.4-12.9-9.9-12.9-6.6 0-9.9 5.6-9.9 12.9 0 7.4 3.4 13.3 9.9 13.3z" class="c"/><path d="m549.9 518.8-26.2-26.2q-.6-.5-1.3-.8-.7-.3-1.5-.3-.7 0-1.5.3-.7.3-1.2.8l-5.4 5.5 6.9 6.9c1.6-.5 3.4-.2 4.7 1.1 1.3 1.2 1.6 3.1 1.1 4.7l6.7 6.7c1.5-.6 3.4-.2 4.7 1.1 1.8 1.8 1.8 4.6 0 6.4-1.8 1.8-4.7 1.8-6.5 0q-.5-.4-.8-1-.4-.6-.5-1.3-.1-.7 0-1.3 0-.7.3-1.3l-6.2-6.2v16.3c.4.2.8.5 1.2.8 1.8 1.8 1.8 4.8 0 6.6-1.8 1.8-4.7 1.8-6.5 0-1.8-1.8-1.8-4.8 0-6.6.5-.4.9-.7 1.5-.9v-16.5c-.6-.3-1-.6-1.5-1-1.4-1.4-1.7-3.4-1-5.1l-6.8-6.8-18 18q-.5.5-.8 1.2-.3.8-.3 1.5 0 .8.3 1.5t.8 1.3l26.2 26.2c1.6 1.5 4 1.5 5.5 0l26.1-26.1c1.5-1.5 1.5-3.9 0-5.5zM531 597.5q0-1.2.5-2.3.4-1.1 1.3-1.9.8-.9 1.9-1.3 1.1-.5 2.3-.5h308q1.2 0 2.3.5 1.1.4 1.9 1.3.9.8 1.3 1.9.5 1.1.5 2.3v148q0 1.2-.5 2.3-.4 1.1-1.3 1.9-.8.9-1.9 1.3-1.1.5-2.3.5H537q-1.2 0-2.3-.5-1.1-.4-1.9-1.3-.9-.8-1.3-1.9-.5-1.1-.5-2.3z" class="e"/><path d="M561.7 697.3v-46.8H590v5.2h-22.3v16.1h20.2v5.2h-20.2v20.3zm35.4 0v-35.2h5.5v5.4h.4c1.3-3.5 4.9-5.9 9.1-5.9.8 0 2.2.1 2.8.1v5.7c-.3 0-1.8-.3-3.3-.3-5.1 0-8.8 3.4-8.8 8.2v22zm37.5.7c-9.6 0-16-7.2-16-18.1 0-11 6.4-18.2 16-18.2s16 7.2 16 18.2c0 10.9-6.4 18.1-16 18.1zm0-5c7.1 0 10.3-6.2 10.3-13.1 0-7-3.2-13.1-10.3-13.1-7 0-10.3 6.1-10.3 13.1 0 6.9 3.3 13.1 10.3 13.1zm29.9-16.8v21.1h-5.6v-35.2h5.4v6.5c2.3-4.9 6.1-6.9 10.8-6.9 7.1 0 11.9 4.4 11.9 13.3v22.3h-5.7v-21.9c0-5.4-3-8.6-7.9-8.6-5.1 0-8.9 3.4-8.9 9.4zm46.2-14.1v4.9h-7.2v21.2c0 3.1 1.1 4.5 4.1 4.5.7 0 2-.2 2.9-.4l1.2 4.8c-1.2.4-2.8.6-4.2.6-6.1 0-9.7-3.4-9.7-9.1V667h-5.3v-4.9h5.3v-8.3h5.7v8.3zm21.4 35.9c-10.2 0-16.5-7.2-16.5-18s6.2-18.3 15.8-18.3c7.5 0 15.3 4.6 15.3 17.6v2.3h-25.4c.3 7.4 4.6 11.4 10.8 11.4 4.1 0 7.3-1.8 8.6-5.4l5.4 1.5c-1.6 5.3-6.8 8.9-14 8.9zm-10.7-21.2H741c-.6-5.9-3.8-10.1-9.6-10.1-6 0-9.7 4.8-10 10.1zm39.1-.6v21.1h-5.7v-35.2h5.4l.1 6.5c2.2-4.9 6-6.9 10.7-6.9 7.1 0 11.9 4.4 11.9 13.3v22.3h-5.7v-21.9c0-5.4-3-8.6-7.9-8.6-5 0-8.8 3.4-8.8 9.4zM806 698c-8.8 0-14.9-7-14.9-18.2 0-11.1 6.2-18.1 14.9-18.1 6.9 0 9 4.2 10.2 6.1h.4v-17.3h5.7v46.8h-5.5v-5.5h-.6c-1.2 2-3.5 6.2-10.2 6.2zm.8-5c6.4 0 9.9-5.4 9.9-13.3 0-7.7-3.4-12.9-9.9-12.9-6.6 0-9.9 5.6-9.9 12.9 0 7.4 3.4 13.3 9.9 13.3z" class="c"/><path d="M531 797.5q0-1.2.5-2.3.4-1.1 1.3-1.9.8-.9 1.9-1.3 1.1-.5 2.3-.5h308q1.2 0 2.3.5 1.1.4 1.9 1.3.9.8 1.3 1.9.5 1.1.5 2.3v148q0 1.2-.5 2.3-.4 1.1-1.3 1.9-.8.9-1.9 1.3-1.1.5-2.3.5H537q-1.2 0-2.3-.5-1.1-.4-1.9-1.3-.9-.8-1.3-1.9-.5-1.1-.5-2.3z" class="e"/><path d="M565.4 897.3v-46.8H582c9.8 0 14.4 5.5 14.4 12.4 0 6-3.6 8.7-7.7 9.8v.4c4.4.3 9.5 4.3 9.5 11.7 0 7.1-4.6 12.5-15.6 12.5zm5.9-5.3h11c7.3 0 10.1-3.2 10.1-7.3 0-4.7-3.8-8.7-9.8-8.7h-11.3zm0-21h10.3c5.1 0 9-3.1 9-8 0-4-2.7-7.2-8.8-7.2h-10.5zm45.4 27.1c-6.7 0-12-3.9-12-10.8 0-8.1 7.2-9.5 13.7-10.4 6.3-.8 9-.5 9-3.4 0-4.3-2.5-6.8-7.4-6.8-5 0-7.8 2.7-8.9 5.1l-5.4-1.8c2.7-6.4 8.7-8.3 14.2-8.3 4.7 0 13.1 1.4 13.1 12.4v23.2h-5.5v-4.8h-.4c-1.2 2.5-4.5 5.6-10.4 5.6zm.9-5c6.3 0 9.8-4.2 9.8-8.5v-4.9c-1 1.1-7.1 1.7-9.3 2-4.1.5-7.7 1.9-7.7 5.9 0 3.6 3 5.5 7.2 5.5zm39.7 4.9c-9.6 0-16-7.2-16-18.1 0-11 6.4-18.2 16-18.2 6.8 0 12.3 3.6 14.2 9.7l-5.4 1.5c-1.1-3.6-4.2-6.1-8.8-6.1-7 0-10.3 6.1-10.3 13.1 0 6.9 3.3 13.1 10.3 13.1 4.7 0 7.9-2.7 8.9-6.5l5.4 1.5c-1.9 6.3-7.5 10-14.3 10zm22.4-.7v-46.8h5.7v27.1h.7l15-15.5h7l-14.7 15.1 15.8 20.1h-7.3l-12.8-16.5-3.7 3.5v13zm48.7.7c-10.2 0-16.5-7.2-16.5-18s6.2-18.3 15.8-18.3c7.4 0 15.3 4.6 15.3 17.6v2.3h-25.4c.3 7.4 4.6 11.4 10.8 11.4 4.1 0 7.3-1.8 8.6-5.4l5.4 1.5c-1.6 5.3-6.8 8.9-14 8.9zm-10.8-21.2h19.7c-.6-5.9-3.8-10.1-9.6-10.1-6 0-9.7 4.8-10.1 10.1zm39.2-.6v21.1h-5.7v-35.2h5.4l.1 6.5c2.2-4.9 6-6.9 10.7-6.9 7.1 0 11.9 4.4 11.9 13.3v22.3h-5.7v-21.9c0-5.4-3-8.6-7.9-8.6-5 0-8.8 3.4-8.8 9.4zm45.5 21.8c-8.8 0-14.9-7-14.9-18.2 0-11.1 6.1-18.1 14.9-18.1 6.9 0 9 4.2 10.2 6.1h.4v-17.3h5.7v46.8h-5.5v-5.5h-.6c-1.2 2-3.5 6.2-10.2 6.2zm.8-5c6.4 0 9.9-5.4 9.9-13.3 0-7.7-3.4-12.9-9.9-12.9-6.6 0-9.9 5.6-9.9 12.9 0 7.4 3.4 13.3 9.9 13.3z" class="c"/><path d="M854 671.5h71q1.2 0 2.3-.5 1.1-.4 1.9-1.3.9-.8 1.3-1.9.5-1.1.5-2.3v-328q0-1.2.5-2.3.4-1.1 1.3-1.9.8-.9 1.9-1.3 1.1-.5 2.3-.5h98.5" class="l"/><path d="M854.1 674.5H851v-6h3.1z" class="m"/><path d="m1081.3 331.5-42.8 13.9v-27.8z" class="n"/><path d="M854 871.5h151q1.2 0 2.3-.5 1.1-.4 1.9-1.3.9-.8 1.3-1.9.5-1.1.5-2.3v-168q0-1.2.5-2.3.4-1.1 1.3-1.9.8-.9 1.9-1.3 1.1-.5 2.3-.5h18.5" class="l"/><path d="M854.1 874.5H851v-6h3.1z" class="m"/><path d="m1081.3 691.5-42.8 13.9v-27.8z" class="n"/><path d="M854 871.5h151q1.2 0 2.3.5 1.1.4 1.9 1.3.9.8 1.3 1.9.5 1.1.5 2.3v168q0 1.2.5 2.3.4 1.1 1.3 1.9.8.9 1.9 1.3 1.1.5 2.3.5h241.5" class="l"/><path d="M854.1 874.5H851v-6h3.1z" class="m"/><path d="m1304.3 1051.5-42.8 13.9v-27.8z" class="n"/><path d="M854 871.5h151q1.2 0 2.3.5 1.1.4 1.9 1.3.9.8 1.3 1.9.5 1.1.5 2.3v368q0 1.2.5 2.3.4 1.1 1.3 1.9.8.9 1.9 1.3 1.1.5 2.3.5h241.5" class="l"/><path d="M854.1 874.5H851v-6h3.1z" class="m"/><path d="m1304.3 1251.5-42.8 13.9v-27.8z" class="n"/><path d="M1571 337.5q0-1.2.5-2.3.4-1.1 1.3-1.9.8-.9 1.9-1.3 1.1-.5 2.3-.5h308q1.2 0 2.3.5 1.1.4 1.9 1.3.9.8 1.3 1.9.5 1.1.5 2.3v148q0 1.2-.5 2.3-.4 1.1-1.3 1.9-.8.9-1.9 1.3-1.1.5-2.3.5h-308q-1.2 0-2.3-.5-1.1-.4-1.9-1.3-.9-.8-1.3-1.9-.5-1.1-.5-2.3z" class="g"/><path d="M1601.7 437.3v-46.8h28.3v5.2h-22.3v16.1h20.2v5.2h-20.2v20.3zm35.4 0v-35.2h5.5v5.4h.4c1.3-3.5 4.9-5.9 9.1-5.9.8 0 2.2.1 2.8.1v5.7c-.3 0-1.8-.3-3.3-.3-5.1 0-8.8 3.4-8.8 8.2v22zm37.5.7c-9.6 0-16-7.2-16-18.1 0-11 6.4-18.2 16-18.2s16 7.2 16 18.2c0 10.9-6.4 18.1-16 18.1zm0-5c7.1 0 10.3-6.2 10.3-13.1 0-7-3.2-13.1-10.3-13.1-7 0-10.3 6.1-10.3 13.1 0 6.9 3.3 13.1 10.3 13.1zm29.9-16.8v21.1h-5.6v-35.2h5.4v6.5c2.3-4.9 6.1-6.9 10.8-6.9 7.1 0 11.9 4.4 11.9 13.3v22.3h-5.7v-21.9c0-5.4-3-8.6-7.9-8.6-5.1 0-8.9 3.4-8.9 9.4zm46.2-14.1v4.9h-7.2v21.2c0 3.1 1.1 4.5 4.1 4.5.7 0 2-.2 2.9-.4l1.2 4.8c-1.2.4-2.8.6-4.2.6-6.1 0-9.7-3.4-9.7-9.1V407h-5.3v-4.9h5.3v-8.3h5.7v8.3zm21.4 35.9c-10.2 0-16.5-7.2-16.5-18s6.2-18.3 15.8-18.3c7.5 0 15.3 4.6 15.3 17.6v2.3h-25.4c.3 7.4 4.6 11.4 10.8 11.4 4.1 0 7.3-1.8 8.6-5.4l5.4 1.5c-1.6 5.3-6.8 8.9-14 8.9zm-10.7-21.2h19.6c-.6-5.9-3.8-10.1-9.6-10.1-6 0-9.7 4.8-10 10.1zm39.1-.6v21.1h-5.7v-35.2h5.4l.1 6.5c2.2-4.9 6-6.9 10.7-6.9 7.1 0 11.9 4.4 11.9 13.3v22.3h-5.7v-21.9c0-5.4-3-8.6-7.9-8.6-5 0-8.8 3.4-8.8 9.4zM1846 438c-8.8 0-14.9-7-14.9-18.2 0-11.1 6.2-18.1 14.9-18.1 6.9 0 9 4.2 10.2 6.1h.4v-17.3h5.7v46.8h-5.5v-5.5h-.6c-1.2 2-3.5 6.2-10.2 6.2zm.8-5c6.4 0 9.9-5.4 9.9-13.3 0-7.7-3.4-12.9-9.9-12.9-6.6 0-9.9 5.6-9.9 12.9 0 7.4 3.4 13.3 9.9 13.3z" class="c"/><path d="M1414 331.5h71q1.2 0 2.3.5 1.1.4 1.9 1.3.9.8 1.3 1.9.5 1.1.5 2.3v68q0 1.2.5 2.3.4 1.1 1.3 1.9.8.9 1.9 1.3 1.1.5 2.3.5h18.5" class="l"/><path d="M1414.1 334.5h-3.1v-6h3.1z" class="m"/><path d="m1561.3 411.5-42.8 13.9v-27.8z" class="n"/><path d="M1091 617.5q0-1.2.5-2.3.4-1.1 1.3-1.9.8-.9 1.9-1.3 1.1-.5 2.3-.5h308q1.2 0 2.3.5 1.1.4 1.9 1.3.9.8 1.3 1.9.5 1.1.5 2.3v148q0 1.2-.5 2.3-.4 1.1-1.3 1.9-.8.9-1.9 1.3-1.1.5-2.3.5h-308q-1.2 0-2.3-.5-1.1-.4-1.9-1.3-.9-.8-1.3-1.9-.5-1.1-.5-2.3z" class="g"/><path d="m1201.9 717.3 17-46.8h6.9l17.2 46.8h-6.2l-4.7-13.1h-19.3l-4.5 13.1zm12.7-18.3h15.6c-3.3-9.1-4.6-12.3-7.9-23.8-3.4 11.9-4.6 14.5-7.7 23.8zm35.7 18.3v-46.8h16.1c10.9 0 15.9 6.5 15.9 14.8 0 8.4-5 15-15.9 15h-10.1v17zm6-22.2h9.8c7.4 0 10.2-4.2 10.2-9.8 0-5.5-2.8-9.6-10.3-9.6h-9.7zm41.1-24.6v46.8h-6v-46.8z" class="c"/><path d="M1051 511.5h60v60h-60z" class="g"/><path d="M1076.5 553.2h2.2v-1.5h-2.2zm3.8 0h2.2v-1.5h-2.3zm-7.4-21.2v19.7h2.2v1.5h-2.2v8.5q-.1.4-.4.7c-.1.1-.3.1-.4.1h-.2l-11.3-3.9q-.1 0-.2-.1-.1 0-.2-.1 0-.1-.1-.2v-31.4c0-.3.2-.5.4-.6l11.3-5.6c.2-.1.5-.1.7 0 .2.2.4.4.4.7v9.2h2.2v1.5h-2.2zm-1.5-9.5-9.8 4.8v30.1l9.8 3.3v-38.2zm12.7 30.7h2.3v-1.5h-2.3v1.5zm.1-21.1h2.2v-1.5h-2.2zm-3.8 0h2.2v-1.5h-2.2zm-3.7 0h2.1v-1.5h-2.1zm25.4 25.9c0 .3-.2.6-.5.7l-11.3 3.8h-.2q-.2 0-.4-.1c-.2-.2-.4-.4-.4-.6v-8.6h-1.4v-1.5h1.4v-19.6h-1.4v-1.5h1.4v-9.3c0-.3.2-.5.4-.6.2-.2.5-.2.7-.1l11.3 5.6c.2.1.4.4.4.7zm-1.5-30.7-9.8-4.8v38.2l9.8-3.3v-30.1zm-17.3 9.6-1.4-.6-3.7 9.9 1.4.6zm5.1 4.8c.2-.3.2-.8 0-1.1l-3-3-1.1 1.1 2.5 2.4-2.5 2.5 1.1 1.1zm-11.6 3-3-3c-.3-.3-.3-.8 0-1.1l3-3 1.1 1.1-2.5 2.5 2.5 2.4z" class="c"/><path d="M1274 871.5h60v60h-60z" class="k"/><path d="M1296.7 897.4c-.1-.2-.4-.4-.7-.4-.3 0-.6.2-.7.4l-11.4 24q-.2.4 0 .8c.1.2.4.3.6.3h11c.3 0 .5-.1.7-.4l6-12.7c.1-.2.1-.4 0-.6l-5.5-11.3zm-1.7 23.5h-9.3l10.3-21.5 4.7 9.6-5.7 11.9zm28.5-9h-3.7l-14.8-31.1-.1-.1-.2-.2q-.1 0-.2-.1h-13.3c-.4 0-.7.4-.7.8v9c0 .2 0 .3.2.5.1.1.3.2.5.2h6.3l14.9 31.1c.1.2.4.4.7.4h10.4c.5 0 .8-.3.8-.8v-9.2q-.1-.2-.2-.3-.1-.1-.3-.1-.1-.1-.3-.1zm-.7 9h-9.3l-14.8-31.1c-.1-.2-.4-.4-.7-.4h-6v-7.5h11.9l14.7 31.1c.2.2.4.4.7.4h3.5v7.5z" class="c"/><path d="M1314 977.5q0-1.2.5-2.3.4-1.1 1.3-1.9.8-.9 1.9-1.3 1.1-.5 2.3-.5h308q1.2 0 2.3.5 1.1.4 1.9 1.3.9.8 1.3 1.9.5 1.1.5 2.3v148q0 1.2-.5 2.3-.4 1.1-1.3 1.9-.8.9-1.9 1.3-1.1.5-2.3.5h-308q-1.2 0-2.3-.5-1.1-.4-1.9-1.3-.9-.8-1.3-1.9-.5-1.1-.5-2.3z" class="k"/><path d="m1336.9 1077.3 17-46.8h6.9l17.2 46.8h-6.3l-4.7-13.1h-19.3l-4.5 13.1zm12.7-18.3h15.6c-3.2-9.1-4.5-12.3-7.9-23.8-3.4 11.9-4.5 14.5-7.7 23.8zm40.6-2.8v21.1h-5.6v-35.2h5.4v6.5c2.3-4.9 6.1-6.9 10.8-6.9 7.1 0 11.9 4.4 11.9 13.3v22.3h-5.7v-21.9c0-5.4-3-8.6-7.9-8.6-5.1 0-8.9 3.4-8.9 9.4zm42.2 21.9c-6.6 0-11.9-3.9-11.9-10.8 0-8.1 7.1-9.5 13.6-10.4 6.4-.8 9-.5 9-3.4 0-4.3-2.4-6.8-7.3-6.8-5.1 0-7.8 2.7-8.9 5.1l-5.4-1.8c2.7-6.4 8.7-8.3 14.1-8.3 4.7 0 13.2 1.4 13.2 12.4v23.2h-5.6v-4.8h-.3c-1.2 2.5-4.5 5.6-10.5 5.6zm1-5c6.3 0 9.7-4.2 9.7-8.5v-4.9c-.9 1.1-7.1 1.7-9.2 2-4.1.5-7.8 1.9-7.8 5.9 0 3.6 3.1 5.5 7.3 5.5zm31-42.6v46.8h-5.7v-46.8zm9.7 59.5 1.4-4.9c3.8 1.1 6.4.6 8.3-4.7l1-2.9-13.4-35.4h6.1c3.4 9.9 7.5 19.5 10.2 29.9 2.8-10.4 6.9-20 10.3-29.9h6.1l-15.4 40.4c-2.1 5.6-5.5 8.2-10.5 8.2-2 0-3.6-.4-4.1-.7zm51.4-47.9v4.9h-7.2v21.2c0 3.1 1.2 4.5 4.2 4.5.7 0 1.9-.2 2.9-.4l1.1 4.8c-1.1.4-2.7.6-4.2.6-6.1 0-9.6-3.4-9.6-9.1V1047h-5.3v-4.9h5.3v-8.3h5.6v8.3zm7.3 35.2v-35.2h5.6v35.2zm2.9-40.9c-2.2 0-3.9-1.7-3.9-3.8 0-2 1.7-3.7 3.9-3.7s3.9 1.7 3.9 3.7c0 2.1-1.7 3.8-3.9 3.8zm26.9 41.6c-9.5 0-15.9-7.2-15.9-18.1 0-11 6.4-18.2 15.9-18.2 6.8 0 12.4 3.6 14.3 9.7l-5.5 1.5c-1-3.6-4.1-6.1-8.8-6.1-7 0-10.2 6.1-10.2 13.1 0 6.9 3.2 13.1 10.2 13.1 4.8 0 8-2.7 9-6.5l5.4 1.5c-1.9 6.3-7.5 10-14.4 10zm34.4 0c-7.2 0-12.2-3.2-13.5-9.2l5.4-1.3c1 3.8 3.9 5.6 8.1 5.6 4.9 0 8-2.5 8-5.4 0-2.4-1.7-4-5.1-4.8l-5.9-1.4c-6.3-1.5-9.4-4.6-9.4-9.6 0-6 5.5-10.2 13-10.2 7.2 0 11 3.5 12.6 8.5l-5.1 1.3c-.9-2.5-2.9-5-7.5-5-4.1 0-7.3 2.2-7.3 5.1 0 2.6 1.8 4 5.9 5l5.3 1.3c6.4 1.5 9.4 4.7 9.4 9.5 0 6.1-5.6 10.6-13.9 10.6z" class="c"/><path d="M1314 1177.5q0-1.2.5-2.3.4-1.1 1.3-1.9.8-.9 1.9-1.3 1.1-.5 2.3-.5h308q1.2 0 2.3.5 1.1.4 1.9 1.3.9.8 1.3 1.9.5 1.1.5 2.3v148q0 1.2-.5 2.3-.4 1.1-1.3 1.9-.8.9-1.9 1.3-1.1.5-2.3.5h-308q-1.2 0-2.3-.5-1.1-.4-1.9-1.3-.9-.8-1.3-1.9-.5-1.1-.5-2.3z" class="k"/><path d="M1399.2 1277.3v-46.8h28.5v5.2h-22.6v15.3h21v5.3h-21v15.7h22.9v5.3zm37.9 0v-35.2h5.5l.1 6.5c1.7-4.8 5.7-7.1 9.8-7.1 4.6 0 7.7 2.8 9 7.2 1.6-4.5 5.9-7.2 11-7.2 6.1 0 11.1 3.9 11.1 12.1v23.7h-5.7v-23.6c0-5-3.3-7-7.1-7-4.7 0-7.6 3.2-7.6 7.6v23h-5.7v-24.1c0-3.9-2.9-6.5-6.9-6.5-4.1 0-7.8 2.9-7.8 8.4v22.2zm66.2.8c-6.6 0-11.9-3.9-11.9-10.8 0-8.1 7.1-9.5 13.6-10.4 6.4-.8 9-.5 9-3.4 0-4.3-2.4-6.8-7.3-6.8-5.1 0-7.8 2.7-8.9 5.1l-5.4-1.8c2.7-6.4 8.7-8.3 14.1-8.3 4.8 0 13.2 1.4 13.2 12.4v23.2h-5.6v-4.8h-.3c-1.2 2.5-4.5 5.6-10.5 5.6zm1-5c6.3 0 9.7-4.2 9.7-8.5v-4.9c-.9 1.1-7.1 1.7-9.2 2-4.1.5-7.8 1.9-7.8 5.9 0 3.6 3.1 5.5 7.3 5.5zm25.3 4.2v-35.2h5.7v35.2zm2.8-40.9c-2.1 0-3.9-1.7-3.9-3.8 0-2 1.8-3.7 3.9-3.7 2.2 0 4 1.7 4 3.7 0 2.1-1.8 3.8-4 3.8zm18.5-5.9v46.8h-5.7v-46.8z" class="c"/><path d="M51 697.5q0-1.2.5-2.3.4-1.1 1.3-1.9.8-.9 1.9-1.3 1.1-.5 2.3-.5h348q1.2 0 2.3.5 1.1.4 1.9 1.3.9.8 1.3 1.9.5 1.1.5 2.3v148q0 1.2-.5 2.3-.4 1.1-1.3 1.9-.8.9-1.9 1.3-1.1.5-2.3.5H57q-1.2 0-2.3-.5-1.1-.4-1.9-1.3-.9-.8-1.3-1.9-.5-1.1-.5-2.3z"/><path d="M97.9 797.3H83.3v-46.8h15.2c13.6 0 21.7 8.7 21.7 23.3 0 14.6-8.1 23.5-22.3 23.5zm-8.7-5.3h8.3c11.4 0 16.9-6.9 16.9-18.2 0-11.3-5.5-18.1-16.3-18.1h-8.9zm54.6 6c-10.2 0-16.5-7.2-16.5-18s6.2-18.3 15.8-18.3c7.5 0 15.3 4.6 15.3 17.6v2.3H133c.3 7.4 4.6 11.4 10.8 11.4 4.2 0 7.3-1.8 8.6-5.4l5.4 1.5c-1.6 5.3-6.8 8.9-14 8.9zm-10.7-21.2h19.6c-.6-5.9-3.8-10.1-9.6-10.1-6 0-9.7 4.8-10 10.1zm42.3 20.5L162 762.1h6.2c3.3 9.9 7.4 19.5 10.2 29.9 2.7-10.4 6.8-20 10.2-29.9h6.2l-13.5 35.2zm39.5.7c-10.2 0-16.4-7.2-16.4-18s6.2-18.3 15.8-18.3c7.4 0 15.3 4.6 15.3 17.6v2.3h-25.4c.3 7.4 4.5 11.4 10.8 11.4 4.1 0 7.2-1.8 8.5-5.4l5.5 1.5c-1.6 5.3-6.9 8.9-14.1 8.9zm-10.7-21.2h19.6c-.5-5.9-3.7-10.1-9.5-10.1-6.1 0-9.7 4.8-10.1 10.1zm39.1-26.3v46.8h-5.6v-46.8zm24.3 47.5c-9.6 0-16-7.2-16-18.1 0-11 6.4-18.2 16-18.2 9.5 0 16 7.2 16 18.2 0 10.9-6.5 18.1-16 18.1zm0-5c7.1 0 10.3-6.2 10.3-13.1 0-7-3.2-13.1-10.3-13.1-7.1 0-10.3 6.1-10.3 13.1 0 6.9 3.2 13.1 10.3 13.1zm24.2 17.4v-48.3h5.5v5.7h.6c1.2-1.9 3.4-6.1 10.2-6.1 8.8 0 14.9 7 14.9 18.1 0 11.2-6.1 18.2-14.9 18.2-6.6 0-9-4.2-10.2-6.2h-.4v18.6zm15.5-17.4c6.5 0 9.9-5.9 9.9-13.3 0-7.3-3.3-12.9-9.9-12.9-6.5 0-9.9 5.2-9.9 12.9 0 7.9 3.5 13.3 9.9 13.3zm38.7 5c-10.2 0-16.5-7.2-16.5-18s6.3-18.3 15.8-18.3c7.5 0 15.3 4.6 15.3 17.6v2.3h-25.3c.2 7.4 4.5 11.4 10.7 11.4 4.2 0 7.3-1.8 8.6-5.4l5.5 1.5c-1.7 5.3-6.9 8.9-14.1 8.9zm-10.7-21.2h19.6c-.5-5.9-3.8-10.1-9.6-10.1-6 0-9.7 4.8-10 10.1zm33.4 20.5v-35.2h5.5v5.4h.4c1.3-3.5 4.9-5.9 9.1-5.9.8 0 2.2.1 2.9.1v5.7c-.4 0-1.9-.3-3.4-.3-5.1 0-8.8 3.4-8.8 8.2v22z" class="c"/><path d="M414 771.5h31q1.2 0 2.3-.5 1.1-.4 1.9-1.3.9-.8 1.3-1.9.5-1.1.5-2.3v-88q0-1.2.5-2.3.4-1.1 1.3-1.9.8-.9 1.9-1.3 1.1-.5 2.3-.5h18.5" class="l"/><path d="M414.1 774.5H411v-6h3.1z" class="m"/><path d="m521.3 671.5-42.8 13.9v-27.8z" class="n"/><path d="M414 771.5h31q1.2 0 2.3.5 1.1.4 1.9 1.3.9.8 1.3 1.9.5 1.1.5 2.3v88q0 1.2.5 2.3.4 1.1 1.3 1.9.8.9 1.9 1.3 1.1.5 2.3.5h18.5" class="l"/><path d="M414.1 774.5H411v-6h3.1z" class="m"/><path d="m521.3 871.5-42.8 13.9v-27.8z" class="n"/><path d="M1571 537.5q0-1.2.5-2.3.4-1.1 1.3-1.9.8-.9 1.9-1.3 1.1-.5 2.3-.5h308q1.2 0 2.3.5 1.1.4 1.9 1.3.9.8 1.3 1.9.5 1.1.5 2.3v148q0 1.2-.5 2.3-.4 1.1-1.3 1.9-.8.9-1.9 1.3-1.1.5-2.3.5h-308q-1.2 0-2.3-.5-1.1-.4-1.9-1.3-.9-.8-1.3-1.9-.5-1.1-.5-2.3z" class="g"/><path d="m1681.9 637.3 17-46.8h6.9l17.2 46.8h-6.2l-4.7-13.1h-19.3l-4.5 13.1zm12.7-18.3h15.6c-3.3-9.1-4.6-12.3-7.9-23.8-3.4 11.9-4.6 14.5-7.7 23.8zm35.7 18.3v-46.8h16.1c10.9 0 15.9 6.5 15.9 14.8 0 8.4-5 15-15.9 15h-10.1v17zm6-22.2h9.8c7.4 0 10.2-4.2 10.2-9.8 0-5.5-2.8-9.6-10.3-9.6h-9.7zm41.1-24.6v46.8h-6v-46.8z" class="c"/><path d="M1414 691.5h71q1.2 0 2.3-.5 1.1-.4 1.9-1.3.9-.8 1.3-1.9.5-1.1.5-2.3v-68q0-1.2.5-2.3.4-1.1 1.3-1.9.8-.9 1.9-1.3 1.1-.5 2.3-.5h18.5" class="l"/><path d="M1414.1 694.5h-3.1v-6h3.1z" class="m"/><path d="m1561.3 611.5-42.8 13.9v-27.8z" class="n"/></svg>
