<svg xmlns="http://www.w3.org/2000/svg" width="39" height="39" version="1.2"><path fill-rule="evenodd" d="M16.6 15.1h-2.7q0 1.1.4 1.9.5.8 1.2 1.3.8.5 1.7.7 1 .3 2 .3 1.3 0 2.3-.3.9-.3 1.6-.8.6-.5 1-1.2.3-.7.3-1.5 0-.9-.4-1.6-.5-.6-1.1-1-.6-.3-1.2-.5t-1-.2q-1.2-.3-1.9-.5t-1.1-.4q-.4-.1-.6-.4-.1-.2-.1-.5 0-.4.2-.6.1-.3.4-.4.3-.2.6-.3h.7q.5 0 .9.1.4 0 .8.2.3.2.5.6.2.3.2.8H24q0-1-.4-1.7t-1.1-1.2q-.7-.4-1.6-.6-.9-.2-1.9-.2-.8 0-1.7.2-.8.2-1.5.6-.6.5-1 1.1-.5.7-.5 1.6 0 .8.4 1.4.3.5.8.9t1.2.6q.7.3 1.4.4.6.2 1.3.3.7.2 1.2.4t.8.5q.4.3.4.7 0 .5-.3.8-.2.3-.6.4-.4.2-.8.2-.4.1-.8.1-.5 0-1-.1-.5-.2-.9-.4-.4-.3-.6-.7-.2-.4-.2-1zm5.7 17.7L35.7 9.5h-5.3L19.6 29.7h-.1L8.7 9.5H3.3l13.3 23.3z" style="fill:#c5a33d;stroke:#000;paint-order:stroke fill markers;stroke-miterlimit:100;stroke-width:4"/></svg>