<svg xmlns="http://www.w3.org/2000/svg" width="948" height="76" version="1.2"><path fill-rule="evenodd" d="m69.7 21.9-21.1 1.2q.1-4.8-2.2-7-2.2-2.2-6.9-2.2-3.8 0-6.1 1.6-2.3 1.7-2.7 4-.4 1.7 1 3.1 1.3 1.4 6.9 2.6 13.9 3.1 19.5 6.3 5.7 3.2 7.6 8 2 4.7.8 10.6-1.3 6.9-6.2 12.7-5 5.8-12.4 8.8-7.4 3-17.8 3-18.3 0-23.9-7.1-5.7-7-4.5-17.8L23 48.4q-.3 5.1 1.2 7.8 2.6 4.3 9 4.3 4.7 0 7.7-2.2t3.6-5.2q.5-2.7-1.5-4.9T32.4 44q-13.9-3.3-19-8.7-5.2-5.4-3.6-13.8Q10.9 16 15 11.1q4.2-4.9 11.2-7.7Q33.1.6 44.3.6 58 .6 64.2 5.7q6.2 5.1 5.5 16.2zm75.1-2.4h-22.5l-10.5 53.9H89.7l10.4-53.9H77.6L81 1.8h67.2zm68.7-2.4h-37.1l-2.2 11.4h34.4l-2.8 14.6h-34.4l-2.7 14.1h38.1l-3.1 16.2h-60.4l13.9-71.6h59.3zm45 56.3h-24L221.4 1.8h23.1l6.1 51.5 25.9-51.5H299zm103-56.3h-37.1l-2.3 11.4h34.5l-2.9 14.6h-34.4l-2.7 14.1h38.2l-3.2 16.2h-60.3l13.8-71.6h59.3zm69.7 56.3h-20.9l-19.1-39.3-7.7 39.3h-20.8l13.9-71.5h20.7l19.3 39.6 7.6-39.6h20.9zm90 0h-24L484 1.8h23.2l6.1 51.5 25.9-51.5h22.4zm74.7 0-1.2-11.8h-25.2l-5.8 11.8h-22.6l40.8-71.6H606l13.1 71.6zm-5.8-53-12.9 25.7H593zm89 6.8q-.4-3.2-1.2-4.8-1.4-2.5-3.8-3.9-2.4-1.3-5.8-1.3-7.5 0-12.7 6-3.9 4.5-5.7 14.1-2.3 11.9.4 16.4 2.8 4.4 9.3 4.4 6.4 0 10.3-3.6 3.9-3.5 6.7-10.3l18.3 5.8q-3.6 8.2-8.8 13.6-5.3 5.5-12 8.3-6.8 2.8-16.4 2.8-11.7 0-18.4-3.4-6.8-3.4-10.5-12-3.7-8.5-1.1-21.8 3.4-17.8 14.7-27.3Q653.7.6 671 .6q13.5 0 20.2 5.5 6.7 5.5 8.3 16.8zm89.6 46.2h-22.3l5.7-29h-24.2l-5.6 29h-22.1L714 1.8h22.2l-4.9 25h24.2l4.8-25h22.2zm92.2-36.3q-2.5 12.5-8.2 20.5-5.8 8.1-14.7 12.5-8.8 4.5-20.7 4.5-12.1 0-19.3-3.9-7.2-3.8-10.5-12.2-3.3-8.3-.9-20.9 3.4-17.5 15.1-27.3Q813.3.6 830.8.6q17.8 0 25.6 9.6 7.8 9.6 4.5 26.9zM837.6 22q-3.2-4.7-10.1-4.7-6.7 0-11.7 4.8-5 4.7-7.1 15.6-2.1 10.9 1 15.6 3.1 4.8 10 4.8 7.2 0 12-4.7 4.8-4.6 7.1-16.6 2-10.1-1.2-14.8zm95.8 51.4h-20.9l-19.2-39.3-7.6 39.3h-20.8l13.9-71.6h20.6l19.3 39.6 7.7-39.6h20.8z"/></svg>