<svg xmlns="http://www.w3.org/2000/svg" width="215" height="214" version="1.2"><style>@keyframes spin{from{transform:rotate(0)}to{transform:rotate(-360deg)}}#b{animation:3s linear infinite spin;transform-origin:50% 50%}</style><defs><radialGradient id="a" cx="0" cy="0" r="1" gradientTransform="scale(-103.846) rotate(12.205 4.162 -5.316)" gradientUnits="userSpaceOnUse"><stop offset="0" stop-color="#fff"/><stop offset=".557" stop-color="#fdfdfd"/><stop offset=".761" stop-color="#f6f6f6"/><stop offset=".902" stop-color="#ebebeb"/><stop offset=".969" stop-color="#e2e2e2"/><stop offset="1" stop-color="#b6b7b6"/></radialGradient><radialGradient id="c" cx="0" cy="0" r="1" gradientTransform="translate(107.45 105.1) scale(104.858)" gradientUnits="userSpaceOnUse"><stop offset="0"/><stop offset=".4" stop-color="#020202"/><stop offset=".541" stop-color="#090909"/><stop offset=".643" stop-color="#141414"/><stop offset=".726" stop-color="#252525"/><stop offset=".796" stop-color="#3b3b3b"/><stop offset=".859" stop-color="#565756"/><stop offset=".918" stop-color="#767776"/><stop offset=".969" stop-color="#9a9b9a"/><stop offset="1" stop-color="#b6b7b6"/></radialGradient><radialGradient id="d" cx="0" cy="0" r="1" gradientTransform="translate(108.35 -39) scale(215.04)" gradientUnits="userSpaceOnUse"><stop offset="0" stop-color="#fff"/><stop offset="1" stop-color="#fff" stop-opacity="0"/></radialGradient><clipPath id="b" clipPathUnits="userSpaceOnUse"><path d="M168.85 17.85q17 11.95 28.3 29.5 11.35 17.6 15.2 38 4.05 21.2-.55 42.4-5.25 24.35-20.6 43.7-14.85 18.75-36.35 29.4-13.95 4.65-29.3 4.65-19.4 0-36.4-7.7-15.4-7-27.25-19.6-11-11.65-17.15-26.1-5.95-14-5.95-27.25 0-4.55.55-9.2 1.05-8.45 3.8-15.75 5.45-14.3 17.6-24.35Q76.5 62.6 94.2 62.6q18.85 0 29.75 11.9 3.05 3.35 5.05 6.95 3.7 6.65 3.7 14.1 0 6.9-3.1 12.45-3.05 5.35-8.05 7.85-3.4 1.7-7.15 1.7-4.9 0-8-2.75-2.8-2.45-2.8-5.65 0-.75.15-1.3.3-1.2 1.35-2.35l.3-.7q0-.75-1-.75-1.05 0-2.2.6-1.35.7-2.35 1.9-1.8 2.3-1.8 5.85 0 7.35 7.15 11.75 5.75 3.5 12.15 3.5 3.65 0 7.8-1.5 4.5-1.65 8.5-4.65 6.35-4.75 10-11.85 4.25-8.3 4.25-18.8 0-8.65-3.65-17.35-3.95-9.3-11.25-16.6l-4-3.6q-16.7-13.75-42.8-13.75-12.5 0-25.1 5.4-12.85 5.5-23.1 15.5-17.05 16.7-21.7 39.45-1.75 8.55-1.75 17.95v.5q.15 28.3 15.85 52.5 16.05 24.7 42.15 35.25Q53.9 199.7 38.8 187q-14.7-12.35-24.2-29.1Q5.05 141.1 2 122.05.25 111 .8 99.9q.45-8.6 2.3-17.2 5-23.3 19.35-42.1 13.8-18.15 33.95-29.15 15.45-5.9 32.9-5.9 20.2 0 37.55 8.25l2.15 1.05q21.05 10.6 34.2 31 12.9 20 12.9 40.3 0 23.55-13.05 40.15-8.35 10.65-20.6 16.65-11.15 5.45-21.8 5.45-18.85 0-29.7-11.9-8.8-9.6-8.8-21.05 0-6.4 2.75-11.65 1.1-2.15 2.55-3.9 1.75-2.15 4-3.65 4.15-2.8 9.05-2.8t8 2.75q1.9 1.7 2.55 3.7l.25 1.95q0 1.35-.55 2.35l-.95 1.3-.35.7q0 .75 1 .75 2.15 0 4.05-1.9 1.95-2 2.3-5.15l.05-1.3q0-7.3-7.15-11.7-5.75-3.5-12.15-3.5-7.35 0-14.95 5.1Q75.9 93 72 99.9q-1.3 2.3-2.3 4.85-2.7 7-2.7 15.4 0 8.65 3.65 17.35 3.9 9.3 11.25 16.6 17.4 17.35 46.8 17.35 22.15 0 41.7-15.2 20.95-16.4 27.45-42.4 2.5-10.1 2.5-20.65l-.05-.9q-.25-32.6-20.5-58.7Q159.65 7.6 129 .75l-1.4-.3 2.4.4q21.2 4.6 38.85 17z"/></clipPath></defs><path fill-rule="evenodd" d="M197.2 49.3q11.3 17.6 15.2 38 4 21.2-.6 42.4t-16.9 38.9q-12.1 17-29.6 28.3t-38 15.2q-21.2 4-42.4-.6t-38.8-16.9q-17-12-28.4-29.6-11.3-17.5-15.2-38-4-21.1.6-42.3 4.6-21.3 17-38.9 12-17 29.5-28.3 17.6-11.3 38-15.2 21.1-4.1 42.4.5 21.2 4.6 38.9 17 17 11.9 28.3 29.5z" style="fill:url(#a)"/><g clip-path="url(#b)"><path fill-rule="evenodd" d="M212.3 87.3q4.1 21.2-.5 42.4t-17 38.9q-12 17-29.5 28.3-17.6 11.3-38 15.2-21.2 4-42.4-.6-21.3-4.6-38.9-16.9-17-12-28.3-29.6-11.3-17.5-15.2-38-4-21.1.6-42.3Q7.7 63.4 20 45.8q12-17 29.6-28.3 17.5-11.3 38-15.2 21.1-4.1 42.4.5 21.2 4.6 38.8 17 17 11.9 28.3 29.5 11.4 17.6 15.2 38z" style="fill:url(#c)"/></g><path fill-rule="evenodd" d="M200.7 113.9q-18.2 12.8-35.3 14.6-13.5 1.4-28.6-4.1-5.4-2-13-5.6l-12.7-5.9q-15-6.7-26.2-7.2-12.9-.5-25.2 3.2-7.3 2.2-18.5 7.6-10 4.9-14.2 5.7-6.7 1.4-12-2.1l-.1-.2q-2.2-16.2 1.3-32.5 4-18.5 14.8-34 10.5-14.8 25.9-24.8 15.4-9.8 33.2-13.3 18.5-3.4 37.2.5 18.5 4 33.9 14.9 14.9 10.5 24.8 25.8 9.9 15.4 13.3 33.2 2.3 12.1 1.4 24.2z" style="fill:url(#d)"/></svg>